<?xml version="1.0" encoding="utf-8"?>
<!-- Generator: Adobe Adobe Illustrator 24.2.0, SVG Export Plug-In . SVG Version: 6.00 Build 0)  -->
<svg version="1.1" id="Layer_1" xmlns="http://www.w3.org/2000/svg" xmlns:xlink="http://www.w3.org/1999/xlink" x="0px" y="0px"
	 width="1080px" height="1080px" viewBox="0 0 1080 1080" style="enable-background:new 0 0 1080 1080;" xml:space="preserve">
<style type="text/css">
	.st0{fill:#FFFFFF;}
</style>
<g id="Layer_2">
</g>
<g>
	<g>
		<path class="st0" d="M608,1080c-202.93,0-405.47,0-608,0C0,720,0,360,0,0c360,0,720,0,1080,0c0,360,0,720,0,1080
			C922.8,1080,765.6,1080,608,1080z M858.36,447.15c0,0,0.04,0.05,0.08,0.21C858.43,447.31,858.41,447.26,858.36,447.15z
			 M685.56,538.35c0,0,0.05,0.05,0.14,0.29c0.18,0.18,0.35,0.36,0.53,0.55c-0.13-0.18-0.25-0.37-0.39-0.54
			C685.77,538.56,685.67,538.49,685.56,538.35z M683.17,533.54c0,0,0.04,0.05,0.13,0.3c0.17,0.19,0.34,0.38,0.52,0.57
			c-0.12-0.19-0.24-0.38-0.38-0.56C683.37,533.76,683.27,533.7,683.17,533.54z M852.73,428.59c-0.49-0.83-0.56-0.14-1.14,0.1
			c-0.45-0.27-1.09-0.44-1.3-0.83c-1.61-2.92-2.93-5.92-2.48-9.41c0.13-1.03,0.36-2.17,0.07-3.12c-1.55-5.07-3.24-10.1-6.27-14.54
			c0,0,0,0-0.13-0.55c-0.33-1.64-1.05-3.08-2.31-4.3c0,0,0.04,0.05-0.22,0.24c-0.76,0.37-1.3-0.02-1.67-0.6
			c-1.29-2.05-2.11-4.26-2.13-6.56c-0.71-0.67-1.46-1.11-1.83-1.77c-1.71-2.98-3.35-6.01-4.91-9.06c-0.26-0.51-0.25-1.37-0.01-1.9
			c0.76-1.72,0.07-3.1-0.78-4.48c-0.97-1.58-1.95-3.16-2.98-4.7c-1.25-1.86-2.56-3.69-3.83-5.52c0,0,0.01,0.01-0.29-0.43
			c-3.1-2.96-5.49-6.47-7.83-10.03c-0.36-0.55-0.75-1.11-1.22-1.58c-1.34-1.36-2.31-2.9-2.73-4.79c-0.17-0.76-0.45-1.63-0.99-2.13
			c-1.12-1.03-1.65-2.35-2.41-3.58c-1.55-2.47-3.24-4.93-5.27-6.99c-1.31-1.33-2.32-2.71-3.36-4.22c-1.81-2.61-4.07-4.92-6.27-7.23
			c-2.66-2.8-5.5-5.43-8.17-8.21c-2.58-2.69-5.06-5.48-7.59-8.22c-0.54-0.59-1.08-1.19-1.68-1.7c-7.8-6.67-15.59-13.34-23.42-19.97
			c-12.96-10.95-26.86-20.57-41.57-29.01c-5.2-2.98-10.5-5.82-15.9-8.4c-6.01-2.87-12.19-5.36-18.3-8.03
			c-1.34-0.59-2.64-1.27-3.97-1.88c-1.58-0.71-3.15-1.45-4.77-2.06c-3.99-1.51-8.03-2.87-12-4.43
			c-12.91-5.09-26.16-9.12-39.57-12.62c-13.04-3.4-26.27-5.78-39.66-7.3c-3.7-0.42-7.39-0.94-11.1-1.29
			c-4.11-0.39-8.23-0.7-12.35-0.9c-2.79-0.14-5.59-0.05-8.39-0.05c-7.33,0-14.65-0.62-21.98-0.05c-3.72,0.29-7.43,0.64-11.16,0.75
			c-7.89,0.22-15.68,1.04-23.31,3.16c-0.76,0.21-1.57,0.28-2.36,0.38c-3.43,0.46-6.87,0.79-10.28,1.38
			c-3.41,0.59-6.76,1.5-10.15,2.17c-8.51,1.69-16.71,4.53-25.08,6.75c-0.51,0.14-1,0.37-1.5,0.54c-6.93,2.36-13.92,4.56-20.47,7.92
			c-1.18,0.6-2.49,0.95-3.73,1.44c-7.67,3.06-15.34,6.12-22.65,9.98c-4.47,2.36-9.08,4.45-13.31,7.28
			c-2.65,1.77-5.63,3.02-8.35,4.69c-3.97,2.43-7.82,5.08-11.77,7.55c-9.98,6.22-19.21,13.43-28.19,20.99
			c-6.63,5.58-12.84,11.61-19.24,17.44c-7.71,7.03-14.44,14.93-21.52,22.51c-5.29,5.66-9.81,11.94-14.29,18.24
			c-2.16,3.04-4.07,6.25-6.19,9.31c-2.79,4.05-5.79,7.96-8.5,12.06c-5.53,8.34-10.32,17.11-14.71,26.1
			c-2.81,5.74-5.56,11.52-8.15,17.36c-1.89,4.26-3.42,8.67-5.21,12.98c-3.78,9.13-6.6,18.58-9.44,28.02
			c-2.92,9.7-5.12,19.6-7.14,29.52c-1.14,5.61-1.96,11.29-2.95,16.93c-1.26,7.23-1.52,14.57-2.21,21.86
			c-0.34,3.58-0.68,7.17-0.71,10.76c-0.08,9.73,0,19.46,0.03,29.19c0.01,1.86-0.01,3.74,0.16,5.59c0.46,5.04,0.96,10.08,1.55,15.11
			c0.68,5.82,1.32,11.65,2.25,17.44c1.41,8.81,3.21,17.55,5.56,26.18c3.23,11.83,6.55,23.62,10.91,35.1
			c1.56,4.11,2.99,8.27,4.49,12.4c0.23,0.62,0.49,1.24,0.77,1.84c3.99,8.43,7.87,16.91,12.01,25.26
			c4.74,9.56,9.93,18.86,16.37,27.42c2.32,3.08,4.54,6.25,6.7,9.45c2.31,3.42,4.46,6.95,6.76,10.37c1.87,2.77,4.07,5.25,6.69,7.38
			c1.33,1.08,2.49,2.4,3.61,3.71c2.07,2.44,3.96,5.03,6.1,7.4c2.48,2.75,4.49,5.95,7.68,8.06c0.85,0.56,1.55,1.51,2.02,2.44
			c1.31,2.57,3.39,4.42,5.45,6.32c1.37,1.26,2.69,2.57,4.01,3.89c1.22,1.23,2.33,2.57,3.61,3.73c5.81,5.31,11.84,10.34,18.39,14.73
			c0.99,0.67,1.93,1.42,2.88,2.15c3.16,2.45,6.29,4.93,9.46,7.36c5.09,3.9,10.72,6.96,16.11,10.41c2.36,1.51,4.7,3.06,7.15,4.39
			c5.97,3.24,11.95,6.48,18.04,9.5c7.05,3.49,14.3,6.55,21.81,8.94c1.19,0.38,2.51,1.27,3.74,0.1c0.7-0.66-0.1-1.86-2.3-3.22
			c-4.99-3.07-10.07-6.01-15.02-9.14c-4.39-2.77-8.66-5.72-12.98-8.6c-3.31-2.21-6.63-4.43-9.93-6.66c-1.54-1.04-3.1-2.06-4.57-3.2
			c-2.63-2.03-5.19-4.16-7.8-6.21c-0.94-0.74-2.02-1.31-2.94-2.06c-6.59-5.41-13.17-10.84-19.74-16.27
			c-2.56-2.12-5.02-4.38-7.71-6.32c-1.09-0.78-2.2-1.34-2.81-2.64c-0.33-0.7-0.96-1.26-1.52-1.83c-3.24-3.35-6.49-6.7-9.75-10.04
			c-1.21-1.24-2.3-2.67-3.72-3.61c-1.53-1.02-3.14-1.79-3.8-3.67c-0.07-0.2-0.41-0.34-0.66-0.42c-3.12-1.04-5.03-3.36-6.46-6.19
			c0,0-0.03,0.08-0.45-0.24c-1.64-1.15-2.8-2.68-3.42-4.69c0.43-0.53,0.19-0.98-0.4-1.89c-0.74-1.46-1.64-2.99-3.21-3.4
			c-2.87-0.76-4.39-2.88-5.94-5.05c-5.1-7.16-10.19-14.33-15.27-21.5c-0.46-0.65-0.85-1.35-1.3-2.01
			c-4.95-7.29-8.59-15.34-13.05-22.91c-0.4-0.69-0.77-1.42-0.99-2.18c-0.44-1.49-0.78-3.01-1.32-5.18
			c-3.24-3.61-4.87-8.93-7.57-13.66c-0.32-0.56-0.36-1.28-0.57-1.91c-0.25-0.76-0.49-1.52-0.81-2.25c-1.5-3.41-3.05-6.8-4.53-10.22
			c-3.14-7.24-4.9-14.93-7.33-22.41c-0.37-1.13-0.38-2.37-0.68-3.53c-0.45-1.8-0.97-3.58-1.52-5.34c-0.48-1.52-1.27-2.98-1.51-4.53
			c-0.71-4.6-2.33-9.05-2.44-13.76c-0.01-0.53-0.1-1.09-0.3-1.56c-0.85-1.97-0.5-3.89,0.29-5.63c-2.11-3.18-2.69-6.54-2.65-10.06
			c0.01-0.89,0.35-1.56,1.41-1.48c-0.02-0.05-0.04-0.1-0.1-0.72c-0.09-1.34-0.3-2.64-1.21-3.72c-0.73-0.87-1.03-1.85-0.69-2.97
			c0.25-0.81,0.04-1.47-0.32-2.25c-0.55-1.17-0.89-2.49-1.07-3.78c-1.01-7.11-1.3-14.28-1.53-21.44c-0.06-1.99-0.08-4,0.15-5.97
			c0.19-1.66,0.77-3.28,1.26-5.24c-0.1-0.21-0.37-0.81-0.62-1.37c1.39-2.99,1.32-2.99,1.52-6.51c0.39-6.76,0.88-13.52,1.3-20.28
			c0.16-2.51,0.37-5.04-0.34-7.5c0,0,0.01,0.01,0.18-0.53c0.78-2.7,1.54-5.41,0.58-7.79c0.64-1.51,1.25-2.66,1.62-3.88
			c0.38-1.27,0.58-2.6,0.77-3.92c1.22-8.57,2.57-17.11,5.26-25.38c0.08-0.25,0.11-0.52,0.18-0.78c1.54-5.38,2.96-10.79,4.66-16.12
			c1.94-6.09,4.08-12.11,6.2-18.15c0.75-2.13,1.56-4.26,2.52-6.3c2.22-4.69,4.84-9.21,6.74-14.02c1.58-3.98,3.8-7.57,5.74-11.32
			c0.55-1.06,1.12-2.12,1.64-3.2c1.75-3.58,3.46-7.19,5.24-10.76c1.07-2.15,2.34-4.17,4.14-5.84c0.87-0.81,1.56-1.82,2.24-2.81
			c2.49-3.62,5.01-7.23,6.81-11.28c1.15-2.59,2.84-4.77,5.01-6.64c1.4-1.21,2.55-2.71,3.72-4.15c2.01-2.48,3.94-5.03,5.91-7.55
			c1.39-1.78,2.78-3.57,4.19-5.34c2.24-2.81,4.43-5.67,6.76-8.4c4.95-5.78,10.71-10.74,16.4-15.77c0.89-0.79,1.7-1.68,2.5-2.57
			c2.57-2.89,5.24-5.65,8.46-7.85c2.08-1.42,4.28-2.83,5.93-4.69c3.33-3.74,7.29-6.61,11.45-9.26c0.67-0.43,1.38-0.82,1.94-1.37
			c3.75-3.7,8.42-6.02,12.82-8.75c1.69-1.05,3.51-1.93,5.1-3.12c4.18-3.12,8.58-5.87,13.15-8.35c4.1-2.22,8.23-4.4,12.36-6.56
			c14.69-7.68,30-13.86,45.88-18.57c7.79-2.31,15.48-5,23.52-6.38c0.52-0.09,1.04-0.24,1.55-0.39c8.6-2.54,17.49-3.58,26.29-5.03
			c9.34-1.53,18.77-2.37,28.23-2.86c12.39-0.64,24.77-0.94,37.15,0.09c4.25,0.35,8.51,0.57,12.75,1.02
			c6.89,0.74,13.79,1.41,20.63,2.5c6.84,1.09,13.6,2.62,20.38,4.06c3.65,0.77,7.31,1.58,10.87,2.67c8.02,2.48,16.02,5.05,23.96,7.76
			c12.89,4.4,25.37,9.81,37.43,16.11c9.68,5.05,19.15,10.55,28.51,16.18c6.15,3.7,11.93,8.04,17.91,12.03
			c9.34,6.23,17.8,13.57,26.31,20.84c12.2,10.43,22.86,22.35,32.9,34.82c2.66,3.31,5.47,6.52,7.7,10.2c1.29,2.14,3.04,4.06,4.86,5.8
			c1.9,1.82,3.13,3.93,4,6.35c0.45,1.25,0.82,2.56,1.48,3.69c2.02,3.44,4.05,6.89,6.31,10.18c2.21,3.22,3.98,6.65,5.35,10.25
			c1.52,3.99,2.81,8.05,5.27,11.59c0.3,0.43,0.4,0.98,0.6,1.48c0.95,2.34,1.9,4.69,2.86,7.03c1.37,3.33,2.88,6.6,4.09,9.98
			c2.1,5.9,4.13,11.83,5.98,17.8c1.93,6.23,3.92,12.47,5.37,18.82c2.81,12.34,5.5,24.72,6.8,37.34c0.4,3.84,0.73,7.69,1.05,11.54
			c0.41,5.05,0.96,10.09,1.11,15.14c0.21,7.06,0.22,14.13,0.08,21.19c-0.11,5.72-0.7,11.44-0.81,17.16
			c-0.08,4.02-0.47,7.97-1.2,11.91c-0.12,0.65-0.22,1.32-0.28,1.98c-0.89,8.62-2.57,17.12-4.07,25.65
			c-1.32,7.48-2.91,14.89-5.04,22.18c-1.23,4.22-2.56,8.41-3.81,12.62c-0.95,3.19-1.72,6.44-2.83,9.57
			c-1.86,5.26-3.88,10.47-5.92,15.66c-1.31,3.34-2.73,6.65-4.21,9.92c-2.41,5.34-4.91,10.63-7.4,15.94
			c-0.62,1.33-1.24,2.66-1.99,3.92c-4.1,6.86-8.22,13.7-12.38,20.52c-1.32,2.16-2.95,4.14-4.15,6.36
			c-3.5,6.47-7.81,12.38-12.27,18.19c-1.14,1.48-2.32,2.92-3.43,4.42c-0.35,0.48-0.53,1.08-1.05,2.17c0.9-0.52,1.31-0.64,1.53-0.9
			c3.12-3.8,6.88-7.09,9.17-11.54c0.3-0.58,0.81-1.05,1.21-1.59c1.34-1.82,2.65-3.66,4-5.47c1.98-2.67,4.01-5.3,5.98-7.98
			c0.75-1.02,1.71-1.65,3.09-1.89c0,0,0.18,0.09,0.08,0.66c-0.58,1.19-1.06,2.44-1.74,3.58c-5.03,8.35-11.18,15.91-17.01,23.69
			c-0.8,1.06-1.65,2.11-2.59,3.04c-1.13,1.11-2.37,2.13-3.63,3.11c-0.35,0.27-0.94,0.25-1.43,0.37c-0.21-0.95-0.38-1.67-0.64-2.83
			c-1.11,1.12-2.02,1.87-2.73,2.78c-4.77,6.09-10.22,11.56-15.63,17.07c-3.64,3.7-7.05,7.62-10.97,11.03
			c-8.44,7.34-16.5,15.12-25.62,21.66c-4.22,3.03-8.33,6.21-12.5,9.3c-1.6,1.19-3.2,2.39-4.88,3.47c-2.35,1.52-4.75,2.95-7.16,4.38
			c-4.01,2.37-7.97,4.86-12.09,7.02c-5.66,2.97-11.43,5.74-17.19,8.51c-14.58,7-29.79,12.36-45.32,16.77
			c-11.92,3.38-24.04,5.97-36.29,7.95c-10.67,1.73-21.4,2.87-32.18,3.45c-15.46,0.83-30.9-0.25-46.34-0.93
			c-0.4-0.02-0.8-0.05-1.19-0.1c-7.53-0.98-15.08-1.81-22.58-2.99c-5.38-0.85-10.71-2.08-16.03-3.27
			c-6.5-1.45-12.97-3.03-19.45-4.55c-0.39-0.09-0.79-0.13-1.19-0.15c-2.76-0.17-3.23,0.17-4.18,3.01c-0.13,0.38-0.21,0.78-0.4,1.13
			c-0.61,1.17-1.59,1.82-2.92,1.68c-0.92-0.1-1.81-0.43-2.73-0.57c-0.47-0.07-0.97,0.04-1.68,0.08c0.32,0.61,0.41,1.06,0.68,1.25
			c1.77,1.18,3.53,2.37,5.38,3.4c1.16,0.64,2.43,1.03,3.17,2.29c0.65,1.1,1.81,1.53,2.97,1.87c4.47,1.31,8.79,3.15,13.48,3.68
			c1.05,0.12,2.07,0.49,3.11,0.74c3.1,0.76,6.2,1.56,9.31,2.26c11.06,2.47,22.22,4.38,33.47,5.74c10.46,1.27,21,1.39,31.51,1.82
			c7.73,0.32,15.45-0.18,23.16-0.82c4.78-0.4,9.57-0.72,14.35-1.12c9.05-0.74,17.95-2.5,26.87-4.1c5.64-1.01,11.32-1.93,16.86-3.36
			c9.93-2.56,19.78-5.39,29.45-8.91c13.43-4.88,26.49-10.54,39.35-16.71c17.01-8.16,32.65-18.57,47.86-29.63
			c11.56-8.4,22.18-17.92,32.37-27.92c3.9-3.83,7.79-7.67,11.47-11.71c4.22-4.63,8.21-9.45,12.27-14.23
			c8.47-9.98,16.01-20.65,22.89-31.76c5.68-9.17,10.98-18.58,16.23-28c2.33-4.18,4.37-8.56,6.13-13.01
			c3.97-10.04,7.67-20.17,11.49-30.27c0.28-0.75,0.53-1.53,0.95-2.2c2.59-4.04,3.2-8.72,4.3-13.23c1.14-4.65,2.12-9.35,3.18-14.02
			c0.09-0.39,0.28-0.75,0.38-1.14c0.71-2.83,1.5-5.65,2.1-8.51c0.65-3.12,1.02-6.32,1.75-9.38c1.6-6.63,2.28-13.38,3.35-20.07
			c1.31-8.15,0.71-16.49,2.11-24.65c0.2-1.16,0.14-2.41,0-3.59c-0.75-6.52-0.23-13.04-0.08-19.56c0.13-5.86,0.02-11.71-0.41-17.55
			c-0.33-4.51-0.69-9.02-0.98-13.53c-0.1-1.59,0.08-3.22-0.12-4.79c-0.22-1.7-0.35-3.59-1.2-4.99c-2.15-3.55-2.79-7.44-3.4-11.4
			c-0.61-3.95-1.07-7.95-2.07-11.8c-1.02-3.95-1.43-7.82-0.47-11.89c-1.92-1.37-1.49-3.25-1.02-5.22c-2.55-2.15-3.11-5.2-3.78-8.18
			c-0.32-1.43-0.45-2.89-0.56-4.48c0,0,0.11-0.14,0.34-0.44c0.82-1.56-0.02-2.8-0.81-4.03c-0.1-0.15-0.45-0.14-0.69-0.2
			c-0.27,0.36-0.55,0.73-1.13,1.5c-0.39-1.62-0.46-2.86-0.98-3.86c-1.11-2.14-1.11-4.32-0.32-6.6c0,0,0.39,0.02,0.45,0.3
			c0.11,0.25,0.21,0.5,0.32,0.75c-0.07-0.23-0.15-0.47-0.22-0.7C852.91,429.02,852.85,428.91,852.73,428.59z M850.34,421.57
			c0,0,0.08,0.02,0.11,0.3c0.1,0.25,0.21,0.49,0.31,0.74c-0.07-0.22-0.13-0.45-0.21-0.67C850.51,421.82,850.45,421.72,850.34,421.57
			z M688.98,544.4c0.21,0.4,0.42,0.8,0.7,1.79c0.2,2.16,0.99,4.09,2.36,5.85c0,0-0.04-0.05-0.16-0.63
			c-0.76-1.94-1.52-3.87-2.45-6.23c-0.21-0.4-0.42-0.8-0.73-1.44c-0.19-0.19-0.37-0.38-0.56-0.56c0.14,0.19,0.27,0.38,0.41,0.56
			C688.62,543.84,688.72,543.91,688.98,544.4z M540.78,763.73c-0.11-0.26-0.22-0.52-0.32-0.78c0.06,0.24,0.12,0.48,0.19,0.71
			c0.04,0.12,0.11,0.22,0.22,0.95c0.22,1.48-0.02,3.06,0.96,4.36C541.85,767.24,541.54,765.58,540.78,763.73z M569.59,367.19
			c0,0,0.01,0.01-0.49-0.26c-1.62-0.6-3.24-1.2-4.87-1.79c-2-0.73-4.03-1.39-6.01-2.18c-0.72-0.29-1.41-0.77-1.93-1.34
			c-0.23-0.25-0.13-1.04,0.11-1.39c0.28-0.39,0.86-0.6,1.34-0.81c4.12-1.86,8.26-3.69,12.38-5.57c0.96-0.44,1.89-0.98,2.77-1.57
			c0.76-0.51,0.91-1.57,0.39-2.1c-0.65-0.66-1.44-0.72-2.19-0.28c-0.57,0.32-1.01,0.86-1.55,1.24c-1.95,1.38-3.83,2.89-5.9,4.04
			c-2.32,1.29-4.82,2.24-7.24,3.34c-1.44,0.65-3.01,1.07-4.29,2.19c0.82,2.61,2.47,4.42,4.72,5.74c3.22,1.89,6.57,3.53,10.16,4.63
			c1,0.31,2.09,0.62,3.11,0.54c0.84-0.07,1.78-0.56,2.4-1.16c1.07-1.02,0.53-2.71-0.93-3.12
			C570.94,367.16,570.24,367.23,569.59,367.19z M539.26,713.17c-0.22,3.75,0.6,7.45,0.69,11.15c0.15,6.01,1.09,11.93,1.46,17.91
			c0.12,1.99,0.32,3.98,0.45,5.97c0.26,3.72,0.66,7.43,0.7,11.16c0.04,3.23,0.4,6.38,1.16,9.5c0.38,1.55,1.01,3.06,1.23,4.63
			c0.21,1.54,0.05,3.13,0.05,4.79c2.69,0.74,5.27,1.29,7.95,1.16c2.26-0.11,4.53-0.18,6.78-0.43c1.97-0.21,3.96-0.5,5.88-1.01
			c3.22-0.85,6.33-2.15,9.58-2.81c4.43-0.9,8.94-1.41,13.43-2.01c5.34-0.71,10.46-2.01,15.12-4.84c1.71-1.03,3.49-1.98,5.33-2.75
			c4.7-1.99,8.94-4.72,13.03-7.74c6.86-5.07,13.79-10.05,20.62-15.16c3.74-2.79,7.24-5.84,10.25-9.48
			c3.14-3.79,6.37-7.58,10.01-10.87c5.65-5.12,9.89-11.18,13.05-18c3.87-8.34,7.96-16.58,11.14-25.23
			c2.67-7.25,5.56-14.42,8.32-21.64c0.43-1.11,0.8-2.28,0.97-3.45c0.73-5,2.14-9.89,2.24-14.99c0.03-1.6,0.19-3.19,0.29-4.79
			c0.15-2.27,0.45-4.5,1.97-6.22c-1.42-3.09-1.38-5.85,0.67-8.42c0.65-0.81,0.52-1.76,0.29-2.68c-0.49-1.93-1.03-3.85-1.49-5.79
			c-0.31-1.31-0.62-2.81,0.33-3.85c2.01-2.21,1.74-4.64,1.09-7.14c-0.65-2.48-0.69-4.93,0.21-7.49c-1.69-0.34-1.9-1.53-2.17-2.75
			c-1.62-7.28-3.23-14.56-4.93-21.82c-0.42-1.81-1.13-3.55-1.69-5.33c-0.28-0.89-0.81-1.78-0.79-2.66c0.09-3.35-1.35-6.21-2.67-9.12
			c-1.81-4.01-3.71-7.96-6.08-11.69c-2.5-3.93-4.65-8.08-6.98-12.12c-1.4-2.43-2.94-4.65-5.51-6.17c-1.89-1.12-3.59-2.76-3.44-5.47
			c0.05-0.84-0.45-1.82-0.98-2.54c-1.17-1.61-2.36-3.25-3.8-4.62c-3.77-3.6-7.22-7.47-10.51-11.5c-0.75-0.92-1.54-1.89-1.99-2.97
			c-0.81-1.93-2.18-3.31-3.72-4.62c-1.42-1.21-2.77-2.5-4.19-3.71c-2.52-2.17-5-4.4-7.63-6.44c-3.16-2.45-6.42-4.76-9.69-7.07
			c-2.93-2.07-5.88-4.15-8.92-6.06c-5.64-3.55-11.4-6.9-17.01-10.5c-2.49-1.6-5.02-3.04-7.83-3.93c-6.47-2.06-12.82-4.56-19.67-5.23
			c-0.92-0.09-1.81-0.42-2.73-0.63c-4.29-0.95-8.57-1.95-12.88-2.83c-2.61-0.53-5.24-0.91-7.88-1.28c-1.83-0.25-2.95-1.16-3.19-3.01
			c-0.22-1.71-0.46-3.43-0.56-5.16c-0.11-1.86,0.15-3.76-0.13-5.59c-1.09-7.15-0.64-14.37-1.16-21.55
			c-0.28-3.85-0.15-7.72-0.25-11.58c-0.1-3.86-0.07-7.74-0.43-11.58c-0.54-5.7-1.25-11.4-2.15-17.06c-0.58-3.67-1.3-7.39-2.56-10.86
			c-1.28-3.51-2.63-6.96-3.55-10.59c-0.39-1.53-1.03-3.02-1.76-4.42c-1.1-2.12-2.29-4.22-3.62-6.21c-1.99-2.99-4.08-5.92-6.21-8.81
			c-0.62-0.85-1.41-1.64-2.28-2.22c-3.8-2.52-7.75-4.74-12.48-4.9c-4.13-0.13-8.26-0.3-12.39-0.33c-1.45-0.01-3.01,0.06-4.33,0.56
			c-5.23,2.01-10.41,4.19-14.66,8c-3.18,2.85-6.11,5.95-8.46,9.56c-1.52,2.35-2.98,4.75-4.59,7.03c-4.03,5.7-7.16,11.84-9.57,18.39
			c-0.5,1.36-1.3,2.62-1.99,3.91c-1.95,3.67-3.46,7.48-4.07,11.63c-0.39,2.63-0.92,5.25-1.58,7.83c-1.45,5.68-3.11,11.31-4.51,17
			c-0.7,2.84-1.21,5.75-1.51,8.66c-0.37,3.59-0.97,7.12-1.8,10.63c-1.62,6.89-2.41,13.91-3.25,20.93
			c-0.43,3.57-1.04,7.12-1.68,10.66c-0.26,1.43-0.63,3.11-2.03,3.75c-2.72,1.23-5.02,3.66-8.42,3.16c-0.49-0.07-1.07,0.13-1.54,0.34
			c-3.27,1.5-6.43,3.1-9.18,5.57c-3.9,3.49-7.3,7.37-10.6,11.41c-4.81,5.9-6.28,12.81-6.43,20.16c-0.04,1.99,0.78,3.57,2.21,4.94
			c2.57,2.46,5.64,3.94,8.95,5.11c4.7,1.66,8.87,0.66,12.86-2.07c1.63-1.12,3.45-1.99,5.23-2.87c0.54-0.27,1.24-0.21,2.16-0.35
			c0.03,1.12,0.16,2.02,0.06,2.89c-1.4,11.64-2.92,23.27-4.25,34.92c-1.8,15.75-4.08,31.45-5.1,47.3
			c-0.41,6.41-0.4,12.78-0.24,19.18c0.17,6.66,0.33,13.33,0.52,19.99c0.1,3.73,0.22,7.46,0.36,11.19
			c0.4,10.54,0.16,21.05-1.66,31.47c-0.29,1.69-0.33,3.45-0.24,5.17c0.06,1.21,0.28,2.31-0.43,3.46c-0.39,0.63-0.47,1.54-0.45,2.31
			c0.07,2.26,0.23,4.52,0.42,6.77c0.13,1.59,0.48,3.17,0.55,4.76c0.22,4.64,0.38,9.29,0.5,13.94c0.05,1.85,0.12,3.73-0.13,5.56
			c-0.37,2.79-0.66,5.55-0.15,8.34c0.12,0.64,0.01,1.33,0.02,2c0.05,3.73,0.14,7.46,0.16,11.19c0.04,6.93-0.1,13.86,0.13,20.77
			c0.09,2.78,0.6,5.51-0.25,8.25c-0.07,0.24,0.01,0.53,0.05,0.79c0.53,3.69,1.19,7.36,1.07,11.12c-0.05,1.48,0.92,2.3,2.34,1.95
			c1.57-0.39,2.88-0.24,4.09,0.97c0.63-0.73,1.07-1.4,1.67-1.88c0.72-0.58,1.57-1,2.35-1.5c2.17-1.37,3.45-3.28,3.54-5.91
			c0.02-0.67,0.03-1.33,0.06-2c0.21-4.12,0.39-8.25,0.65-12.37c0.24-3.86,0.62-7.71,0.82-11.57c0.33-6.25,0.57-12.5,0.86-18.75
			c0.04-0.8,0.19-1.59,0.26-2.38c0.15-1.72,0.38-3.45,0.4-5.17c0.13-15.2,0.22-30.4,0.33-45.59c0.01-1.2,0.06-2.4,0.1-3.6
			c0.17-4.93,0.59-9.86,0.46-14.78c-0.28-10.67,0.71-21.3,0.89-31.96c0.06-3.46,0.32-6.92,0.62-10.37
			c0.51-5.84,1.15-11.67,1.67-17.51c0.62-7.04,1.2-14.07,1.73-21.12c0.77-10.36,1.48-20.72,2.22-31.08
			c0.27-3.72,0.56-7.44,0.83-11.16c0.29-3.99,0.58-7.97,0.84-11.96c0.4-6.25,0.77-12.5,1.17-18.75c0.03-0.53,0.16-1.05,0.27-1.58
			c0.25-1.22,0.82-2.26,1.84-2.99c3.89-2.82,7.74-5.63,12.55-6.84c3.88-0.97,7.66-2.3,11.11-4.42c7.75-4.74,16.42-6.93,25.13-8.92
			c10.33-2.37,20.91-2.21,31.41-2.74c0.53-0.03,1.07-0.01,1.6,0.04c3.3,0.3,4.46,1.85,3.74,5.09c-0.17,0.76-0.48,1.56-0.95,2.17
			c-1.13,1.46-0.94,2.91-0.47,4.54c0.51,1.78,0.92,3.62,1.15,5.45c0.92,7.17,0.72,14.36,0.09,21.54c-0.14,1.58-0.04,3.19,0.03,4.78
			c0.05,1.2,0.43,2.4,0.33,3.58c-0.55,6.38-0.56,12.76-0.3,19.15c0.01,0.26-0.06,0.53-0.06,0.8c-0.13,9.06-0.55,18.12,0.3,27.17
			c0.12,1.32,0.06,2.66-0.01,3.99c-0.19,3.99-0.55,7.98-0.59,11.97c-0.02,2.1,0.48,4.21,0.75,6.32c0.27,2.11,0.73,4.21,0.78,6.32
			c0.06,2.39-0.29,4.78-0.39,7.18c-0.12,2.66-0.33,5.33-0.2,7.98c0.37,7.71,0.9,15.42,1.34,23.13c0.37,6.52,0.69,13.03,1.03,19.55
			c0.03,0.67,0.12,1.33,0.09,2c-0.17,4.82,0.5,9.57,1.05,14.34c0.56,4.89,1.26,9.78,1.14,14.73c-0.07,2.79,0.02,5.6,0.22,8.39
			c0.38,5.31,0.71,10.62,0.6,15.95C539.29,707.58,539.3,709.98,539.26,713.17z M465.13,293.05c-1.84-0.19-3.67-0.48-5.51-0.55
			c-1.28-0.04-2.21,0.86-2.53,2.15c-0.15,0.64-0.24,1.32-0.23,1.98c0.04,7.05,0.1,14.11,0.18,21.16c0.02,1.47,0.33,2.87,1.53,4.09
			c2.21-1.23,3.53-3,4.07-5.26c0.49-2.06,0.73-4.19,1.04-6.29c0.23-1.58,0.35-3.17,0.63-4.74c0.1-0.58,0.5-1.1,0.91-1.96
			c1.04,0.93,1.83,1.61,2.58,2.32c1.54,1.46,3.03,2.98,4.6,4.41c0.44,0.4,1.11,0.56,1.79,0.88c0.69-0.87,1.23-1.61,1.83-2.29
			c0.59-0.67,1.26-1.28,1.85-1.87c-2.24-3.71-8.41-10.87-11.26-13.11C466.31,293.73,465.95,293.54,465.13,293.05z M548.89,294.77
			c0.01-0.27,0.05-0.54,0.01-0.8c-0.32-2-0.84-2.4-2.54-1.98c-1.98,0.5-3.7,1.4-5.14,2.91c-1.19,1.24-2.52,2.35-3.83,3.48
			c-2.62,2.26-5.27,4.49-7.88,6.76c-0.32,0.28-0.99,0.52-0.46,1.32c3.46-2.2,6.91-4.39,10.38-6.6c1.79,1.85,2.04,3.84,1.76,6.05
			c-0.36,2.77-0.66,5.56-0.85,8.34c-0.07,1.02,0.07,2.15,0.47,3.09c0.34,0.81,1.12,1.47,1.81,2.09c0.63,0.57,0.3,1.97,1.8,1.89
			c2.54-4.14,3.86-8.66,4.03-13.54C548.59,303.67,548.71,299.54,548.89,294.77z M424.96,366.35c0.37,1.13,1.12,1.39,2.18,0.96
			c2.84-1.15,5.7-2.25,8.51-3.45c1.59-0.68,3.18-1.4,4.64-2.31c2.28-1.41,4.54-2.74,7.18-3.41c1.86-0.47,3.32-1.57,4.08-3.54
			c-1.01-1.46-2.53-2.03-3.94-2.71c-6.42-3.1-12.67-5.28-16.4-5.69c3.8,2.44,8.28,3.03,11.34,6.48c-0.72,0.81-1.19,1.74-1.94,2.11
			c-2.73,1.35-5.23,3.11-8.16,4.16c-2.85,1.02-5.46,2.72-8.15,4.17c-0.87,0.47-0.86,1.17-0.08,2.32
			C424.37,365.66,424.58,365.84,424.96,366.35z M531.6,623.24c0.19,2.65,0.39,5.3,0.56,7.96c0.3,4.76,0.59,9.52,0.88,14.28
			c0.49-2.92,0.43-5.81,0.08-8.72c-0.27-2.24-0.33-4.51-0.43-6.77c-0.13-2.93-0.09-5.86-0.32-8.78c-0.24-3.06-0.38-6.1-0.04-9.17
			c0.31-2.74,0.14-3.3-0.79-6.02C531.54,611.33,531.54,616.91,531.6,623.24z M530.63,583.63c0.09,0.05,0.23,0.16,0.26,0.13
			c0.09-0.08,0.19-0.2,0.2-0.31c0.05-2.11,0.1-4.23,0.11-6.34c0.01-2.17,0.1-4.34-0.64-6.47
			C530.56,574.85,530.56,579.07,530.63,583.63z M534.77,660.52c-0.19-0.7-0.37-1.41-0.56-2.11c-0.3,2.48-0.57,4.93,0.64,8.14
			C534.85,664.12,534.85,662.59,534.77,660.52z M536.3,711.39c0.05,1.5-0.22,3.04,0.53,4.47c0.37-1.81,0.48-3.59-0.16-5.36
			C536.55,710.68,536.43,710.86,536.3,711.39z M537.48,723.55c0-0.4,0.01-0.8,0-1.19c0-0.13-0.01-0.27-0.06-0.39
			c-0.03-0.06-0.16-0.08-0.39-0.17c0,1.25-0.02,2.43,0.01,3.61c0.02,1.02,0.09,2.05,0.13,3.07c0.11-0.01,0.21-0.01,0.32-0.02
			C537.48,727,537.48,725.55,537.48,723.55z M700.21,582.22c0.1,0.02,0.26,0.09,0.28,0.06c0.06-0.1,0.12-0.24,0.11-0.36
			c-0.1-1.27,0.09-2.61-0.94-4.27C699.58,579.47,699.98,580.7,700.21,582.22z M536.42,699.62c0.06-0.7,0.12-1.4,0.19-2.11
			c-0.12,0-0.24-0.01-0.36-0.01C536.28,698.14,536.32,698.77,536.42,699.62z M696.76,565.1c-0.4,0.74-0.42,0.84-0.12,1.08
			c0.08,0.07,0.22,0.06,0.33,0.09C696.95,565.93,696.93,565.59,696.76,565.1z M701.05,588.59c0.08-0.13,0.16-0.26,0.24-0.38
			c-0.08-0.01-0.23-0.05-0.23-0.03C701.01,588.27,701.01,588.38,701.05,588.59z M533.8,652.37c-0.04,0.11-0.08,0.22-0.11,0.33
			C533.76,652.6,533.83,652.5,533.8,652.37z M535.65,677.84c-0.02,0.12-0.03,0.24-0.05,0.37
			C535.62,678.11,535.65,678.02,535.65,677.84z M530.87,509.37c0.01-0.11,0.03-0.22,0.04-0.33
			C530.87,509.16,530.83,509.28,530.87,509.37z M670.32,517.95l0.15,0.16C670.47,518.1,670.37,517.91,670.32,517.95z M538.72,746.48
			l0.14-0.16C538.86,746.32,538.69,746.42,538.72,746.48z M837.41,391.71l-0.03-0.26C837.39,391.46,837.33,391.7,837.41,391.71z"/>
		<path d="M539.27,712.78c0.03-2.79,0.02-5.19,0.06-7.59c0.11-5.33-0.23-10.64-0.6-15.95c-0.2-2.79-0.28-5.6-0.22-8.39
			c0.12-4.96-0.58-9.84-1.14-14.73c-0.55-4.77-1.22-9.52-1.05-14.34c0.02-0.66-0.06-1.33-0.09-2c-0.34-6.52-0.66-13.03-1.03-19.55
			c-0.43-7.71-0.97-15.42-1.34-23.13c-0.13-2.65,0.08-5.32,0.2-7.98c0.1-2.39,0.45-4.79,0.39-7.18c-0.05-2.11-0.51-4.21-0.78-6.32
			c-0.27-2.11-0.78-4.21-0.75-6.32c0.04-3.99,0.4-7.98,0.59-11.97c0.06-1.33,0.13-2.67,0.01-3.99c-0.85-9.05-0.44-18.11-0.3-27.17
			c0-0.27,0.07-0.53,0.06-0.8c-0.26-6.39-0.26-12.77,0.3-19.15c0.1-1.17-0.27-2.38-0.33-3.58c-0.07-1.59-0.16-3.2-0.03-4.78
			c0.63-7.19,0.83-14.37-0.09-21.54c-0.24-1.84-0.64-3.67-1.15-5.45c-0.47-1.62-0.66-3.08,0.47-4.54c0.47-0.61,0.78-1.41,0.95-2.17
			c0.72-3.24-0.44-4.78-3.74-5.09c-0.53-0.05-1.07-0.07-1.6-0.04c-10.51,0.54-21.08,0.37-31.41,2.74c-8.71,2-17.38,4.19-25.13,8.92
			c-3.45,2.11-7.24,3.45-11.11,4.42c-4.81,1.2-8.66,4.02-12.55,6.84c-1.02,0.74-1.59,1.77-1.84,2.99c-0.11,0.52-0.23,1.05-0.27,1.58
			c-0.4,6.25-0.77,12.5-1.17,18.75c-0.26,3.99-0.55,7.97-0.84,11.96c-0.27,3.72-0.56,7.44-0.83,11.16
			c-0.74,10.36-1.44,20.73-2.22,31.08c-0.53,7.04-1.11,14.08-1.73,21.12c-0.51,5.84-1.16,11.67-1.67,17.51
			c-0.3,3.45-0.56,6.91-0.62,10.37c-0.17,10.65-1.17,21.28-0.89,31.96c0.13,4.92-0.29,9.85-0.46,14.78c-0.04,1.2-0.09,2.4-0.1,3.6
			c-0.11,15.2-0.2,30.4-0.33,45.59c-0.01,1.73-0.25,3.45-0.4,5.17c-0.07,0.8-0.22,1.59-0.26,2.38c-0.29,6.25-0.53,12.51-0.86,18.75
			c-0.21,3.86-0.58,7.71-0.82,11.57c-0.25,4.12-0.44,8.25-0.65,12.37c-0.03,0.67-0.04,1.33-0.06,2c-0.09,2.62-1.37,4.53-3.54,5.91
			c-0.79,0.5-1.64,0.91-2.35,1.5c-0.59,0.48-1.03,1.15-1.67,1.88c-1.22-1.21-2.52-1.36-4.09-0.97c-1.42,0.35-2.39-0.47-2.34-1.95
			c0.12-3.77-0.53-7.43-1.07-11.12c-0.04-0.26-0.13-0.56-0.05-0.79c0.85-2.73,0.34-5.47,0.25-8.25c-0.23-6.92-0.09-13.85-0.13-20.77
			c-0.02-3.73-0.11-7.46-0.16-11.19c-0.01-0.67,0.1-1.35-0.02-2c-0.51-2.8-0.23-5.55,0.15-8.34c0.24-1.83,0.18-3.71,0.13-5.56
			c-0.12-4.65-0.28-9.29-0.5-13.94c-0.08-1.59-0.42-3.17-0.55-4.76c-0.19-2.25-0.35-4.51-0.42-6.77c-0.02-0.77,0.06-1.68,0.45-2.31
			c0.71-1.15,0.5-2.25,0.43-3.46c-0.09-1.72-0.06-3.48,0.24-5.17c1.82-10.43,2.05-20.93,1.66-31.47c-0.14-3.73-0.26-7.46-0.36-11.19
			c-0.18-6.66-0.35-13.32-0.52-19.99c-0.16-6.39-0.17-12.77,0.24-19.18c1.02-15.85,3.3-31.54,5.1-47.3
			c1.33-11.65,2.85-23.28,4.25-34.92c0.11-0.87-0.03-1.78-0.06-2.89c-0.92,0.13-1.62,0.08-2.16,0.35c-1.78,0.88-3.6,1.75-5.23,2.87
			c-3.99,2.73-8.15,3.73-12.86,2.07c-3.31-1.17-6.38-2.65-8.95-5.11c-1.43-1.37-2.25-2.96-2.21-4.94
			c0.15-7.35,1.61-14.26,6.43-20.16c3.29-4.04,6.7-7.92,10.6-11.41c2.75-2.46,5.91-4.07,9.18-5.57c0.47-0.22,1.05-0.42,1.54-0.34
			c3.4,0.51,5.7-1.92,8.42-3.16c1.4-0.64,1.77-2.32,2.03-3.75c0.65-3.54,1.26-7.09,1.68-10.66c0.84-7.02,1.63-14.04,3.25-20.93
			c0.83-3.51,1.43-7.04,1.8-10.63c0.3-2.91,0.81-5.82,1.51-8.66c1.41-5.69,3.06-11.32,4.51-17c0.66-2.58,1.19-5.2,1.58-7.83
			c0.62-4.15,2.13-7.96,4.07-11.63c0.69-1.29,1.49-2.55,1.99-3.91c2.4-6.54,5.53-12.69,9.57-18.39c1.62-2.28,3.07-4.68,4.59-7.03
			c2.34-3.61,5.27-6.7,8.46-9.56c4.25-3.81,9.43-5.99,14.66-8c1.32-0.51,2.88-0.57,4.33-0.56c4.13,0.03,8.26,0.19,12.39,0.33
			c4.74,0.15,8.68,2.38,12.48,4.9c0.87,0.58,1.66,1.37,2.28,2.22c2.13,2.9,4.22,5.82,6.21,8.81c1.32,1.99,2.51,4.09,3.62,6.21
			c0.73,1.4,1.37,2.9,1.76,4.42c0.92,3.63,2.27,7.09,3.55,10.59c1.27,3.47,1.98,7.19,2.56,10.86c0.9,5.66,1.61,11.35,2.15,17.06
			c0.37,3.84,0.33,7.72,0.43,11.58c0.1,3.86-0.03,7.74,0.25,11.58c0.52,7.17,0.07,14.4,1.16,21.55c0.28,1.83,0.02,3.73,0.13,5.59
			c0.1,1.72,0.33,3.44,0.56,5.16c0.24,1.85,1.36,2.76,3.19,3.01c2.64,0.36,5.27,0.75,7.88,1.28c4.31,0.88,8.59,1.87,12.88,2.83
			c0.91,0.2,1.81,0.54,2.73,0.63c6.85,0.67,13.2,3.17,19.67,5.23c2.81,0.9,5.34,2.33,7.83,3.93c5.61,3.6,11.37,6.95,17.01,10.5
			c3.04,1.91,5.98,3.99,8.92,6.06c3.27,2.31,6.53,4.62,9.69,7.07c2.63,2.04,5.11,4.27,7.63,6.44c1.41,1.22,2.76,2.51,4.19,3.71
			c1.54,1.3,2.91,2.69,3.72,4.62c0.46,1.08,1.24,2.05,1.99,2.97c3.29,4.02,6.74,7.9,10.51,11.5c1.43,1.37,2.63,3,3.8,4.62
			c0.52,0.72,1.02,1.71,0.98,2.54c-0.15,2.71,1.55,4.35,3.44,5.47c2.57,1.52,4.1,3.74,5.51,6.17c2.33,4.04,4.48,8.19,6.98,12.12
			c2.37,3.74,4.27,7.68,6.08,11.69c1.32,2.91,2.76,5.76,2.67,9.12c-0.02,0.88,0.5,1.78,0.79,2.66c0.57,1.78,1.27,3.52,1.69,5.33
			c1.69,7.26,3.31,14.54,4.93,21.82c0.27,1.22,0.48,2.41,2.17,2.75c-0.9,2.56-0.86,5.01-0.21,7.49c0.65,2.5,0.92,4.94-1.09,7.14
			c-0.95,1.04-0.64,2.54-0.33,3.85c0.46,1.94,1,3.86,1.49,5.79c0.23,0.92,0.37,1.86-0.29,2.68c-2.06,2.57-2.09,5.33-0.67,8.42
			c-1.51,1.72-1.82,3.95-1.97,6.22c-0.11,1.59-0.26,3.19-0.29,4.79c-0.1,5.09-1.51,9.99-2.24,14.99c-0.17,1.17-0.54,2.34-0.97,3.45
			c-2.76,7.22-5.65,14.39-8.32,21.64c-3.18,8.65-7.27,16.9-11.14,25.23c-3.17,6.82-7.4,12.88-13.05,18
			c-3.64,3.29-6.87,7.08-10.01,10.87c-3.01,3.64-6.51,6.68-10.25,9.48c-6.83,5.11-13.76,10.09-20.62,15.16
			c-4.09,3.02-8.33,5.75-13.03,7.74c-1.84,0.78-3.62,1.72-5.33,2.75c-4.66,2.82-9.79,4.13-15.12,4.84c-4.49,0.6-9,1.11-13.43,2.01
			c-3.25,0.66-6.36,1.96-9.58,2.81c-1.91,0.51-3.9,0.79-5.88,1.01c-2.25,0.24-4.52,0.32-6.78,0.43c-2.68,0.13-5.25-0.43-7.95-1.16
			c0-1.67,0.17-3.25-0.05-4.79c-0.22-1.57-0.85-3.08-1.23-4.63c-0.76-3.12-1.12-6.27-1.16-9.5c-0.04-3.72-0.44-7.44-0.7-11.16
			c-0.14-1.99-0.33-3.98-0.45-5.97c-0.37-5.98-1.31-11.9-1.46-17.91C539.87,720.62,539.04,716.92,539.27,712.78z M495.92,446.43
			c0,0,0.06-0.04,0.14-0.05C496.06,446.37,496,446.41,495.92,446.43z M632.63,716.89c-0.07,0.13-0.14,0.26-0.21,0.39
			c0.13-0.16,0.26-0.32,0.83-0.59c0.41-0.19,0.82-0.39,1.75-0.72c2.74-1.08,2.74-1.08,3.59-3.29c-2.11,0.37-3.28,1.68-4.69,3.4
			C633.53,716.31,633.16,716.55,632.63,716.89z M658.33,505.54l-0.13-0.02c0,0,0.21,0.07,0.36,0.5c0.35,0.86,0.65,1.77,2.55,1.97
			C659.85,506.89,659.12,506.25,658.33,505.54z M428.63,743.71c-0.27-0.4-0.55-0.8-0.9-1.31c-0.35,1.83-0.35,1.83,1.24,1.25
			c0.14-0.5,0.72-0.99-0.15-1.81C428.82,742.77,428.82,743.39,428.63,743.71z M673.02,571.49c0.11-0.64,0.41-1.32,0.29-1.91
			c-0.66-3.37-2.1-6.4-4.35-9.4c-0.46,0.58-0.75,0.95-1.3,0.86c-0.95-1.94-1.9-3.89-2.85-5.83c0,0-0.01,0.01,0.28-0.31
			c0.62-0.67,0.7-1.5,0.32-2.23c-1.05-1.99-2.16-3.96-3.37-5.86c-0.31-0.48-1.09-0.93-1.65-0.92c-1.71,0.04-2.27-1.15-2.88-2.34
			c-0.47-0.93-0.87-1.9-1.55-3.23c-0.23-0.39-0.46-0.78-0.88-1.7c-1.15-1.88-2.2-3.83-3.48-5.61c-0.73-1.01-1.85-1.74-2.8-2.61
			c0,0-0.01-0.01-0.1-0.57c-0.71-1.24-1.33-2.53-2.15-3.7c-1.35-1.93-2.85-3.76-4.24-5.67c-1.09-1.49-2.1-2.99-4-3.63
			c-0.53-0.18-0.87-0.91-1.12-1.61c0.37-1.46-0.67-0.96-1.51-1.33c-0.11-0.38-0.35-0.79-0.3-1.15c0.26-1.94-0.6-3.27-2.04-4.49
			c-1.31-1.11-2.55-2.37-3.59-3.74c-3.56-4.69-8.12-8.01-13.52-10.25c-0.25-0.1-0.5-0.2-0.73-0.33c-2.55-1.44-5.07-2.92-7.64-4.32
			c-3.98-2.16-7.84-4.61-12.01-6.32c-5.03-2.06-10.31-3.55-15.52-5.17c-5.98-1.85-11.98-3.64-18.01-5.32
			c-3.98-1.11-8.02-1.99-12.03-2.95c-0.51-0.12-1.06-0.16-1.59-0.17c-2.15-0.02-3.25,0.96-3.23,3.12c0.02,2.53,0.12,5.07,0.37,7.58
			c0.44,4.37,1.08,8.73,1.52,13.1c0.29,2.91,0.31,5.85,0.57,8.77c0.74,8.23,1.55,16.45,2.33,24.67c0.45,4.78,0.77,9.57,1.36,14.33
			c0.72,5.82,1.66,11.61,2.49,17.41c0.17,1.19,0.25,2.39,0.39,3.58c0.37,3.31,0.78,6.62,1.1,9.93c0.44,4.5,1.13,8.97,0.99,13.54
			c-0.12,4.12,0.3,8.25,0.5,12.38c0.14,2.93,0.47,5.85,0.43,8.78c-0.05,3.23,0.17,6.42,0.98,9.52c0.59,2.26,0.73,4.45,0.27,6.7
			c-0.53,2.6-0.16,5.03,1.24,7.3c0,0,0.01-0.01-0.35,0.42c-1.01,1.25-0.95,2.69-0.86,4.18c0.15,2.39,0.27,4.78,0.28,7.17
			c0.04,6.39-0.03,12.78,0.05,19.16c0.04,2.65,0.58,5.31,0.52,7.95c-0.13,6.4,0.33,12.77,0.98,19.12c0.12,1.17,0.43,2.39,0.96,3.43
			c1.97,3.89,2.71,8.08,2.98,12.33c0.4,6.24,0.54,12.49,0.78,18.74c0.09,2.39,0.1,4.79,0.18,7.19c0.04,1.19-0.03,2.43,1.27,3.45
			c0.96-0.14,2.1-0.3,2.98-0.43c0.37,0.61,0.56,1.28,0.84,1.32c1.34,0.18,2.81,0.1,3.76-0.9c1.14-1.21,2.84-0.72,3.96-1.6
			c1.39-1.08,2.98-0.99,4.55-1.15c0.39-0.04,0.75-0.25,1.12-0.37c0,0-0.01,0.01,0.67,0c3.39-0.4,6.88-0.35,9.9-2.35
			c0.3-0.2,0.79-0.3,1.14-0.23c1.21,0.27,1.96-0.44,2.83-1.07c2.14-1.56,4.47-2.27,7.09-1.1c0,0-0.05-0.05,0.04-0.4
			c0.16-1.56,1.16-2.21,2.58-2.62c3.74-1.07,7.24-2.72,10.39-4.98c2.72-1.95,5.62-3.51,8.63-4.96c2.26-1.09,4.63-2.22,6.47-3.87
			c4.15-3.73,8.12-7.68,11.92-11.76c4.08-4.37,7.9-8.99,11.8-13.52c1.12-1.31,2.21-2.67,3.17-4.1c1.56-2.32,3.02-4.69,4.48-7.08
			c3.33-5.47,6.34-11.09,7.7-17.44c0.28-1.29,0.86-2.52,1.22-3.79c0.9-3.19,1.76-6.38,2.6-9.58c0.54-2.05,1.05-4.11,1.53-6.17
			c0.18-0.76,0.4-1.57,0.32-2.33c-0.44-4.12-0.63-8.2,1.12-12.12c0.15-0.34,0.14-0.78,0.14-1.17c-0.01-3.17-0.16-6.34-0.04-9.5
			c0.21-5.62-0.79-11.11-1.64-16.61c-0.22-1.44-0.71-2.84-0.93-4.28c-0.71-4.74-1.43-9.46-3.38-13.91
			C673.28,574.38,673.11,573.16,673.02,571.49z M512.3,440.15c5.33-0.01,10.66,0.01,15.99-0.03c1.19-0.01,2.41-0.07,3.57-0.32
			c1.56-0.33,2.35-1.24,2.34-2.8c0-1.45-0.2-2.92-0.45-4.35c-0.79-4.59-1.83-9.14-2.43-13.76c-0.88-6.76-2.21-13.4-4.72-19.75
			c-1.21-3.08-1.9-6.36-3.91-9.14c-1.24-1.71-2.04-3.73-3.17-5.53c-1.06-1.68-2.15-3.39-3.5-4.82c-2.66-2.84-5.95-4.9-9.35-6.77
			c-2.9-1.6-6-2.2-9.25-1.86c-3.16,0.33-6.27,1.19-9.5,0.78c-0.63-0.08-1.3,0.22-1.95,0.37c-5.42,1.23-9.63,4.42-13.34,8.37
			c-2.09,2.23-4.06,4.59-6.11,6.86c-1.27,1.41-2.33,2.94-2.8,4.78c-1.24,4.78-3.29,9.27-5.17,13.79
			c-3.08,7.41-5.71,14.92-7.17,22.82c-1.14,6.17-1.62,12.41-1.92,18.66c-0.04,0.91,0.13,1.85,0.34,2.75
			c0.17,0.77,1.11,1.3,1.89,1.08c0.62-0.18,1.23-0.47,1.77-0.83c2.47-1.62,6.86-3.12,9.67-3.14c2.94-0.02,5.77-0.45,8.48-1.7
			c0.78-0.36,1.83-0.39,2.7-0.26c4.68,0.68,9.34,0.11,13.79-1.05c3-0.78,5.9-1.29,8.97-1.29c1.04,0,2.08-0.27,3.11-0.5
			c0.77-0.17,1.54-0.74,2.27-0.68C505.72,442.09,508.68,440.97,512.3,440.15z M430.26,698.96c0.14,0.85-0.26,1.9,1.02,2.46
			c0.87-0.97,0.76-2.2,0.77-3.34c0.05-5.85,0.07-11.71,0.07-17.56c0.01-6.52,0.07-13.02,0.49-19.54c0.47-7.16,0.22-14.36,0.24-21.55
			c0-0.59,0.05-1.39-0.94-1.49c-0.95,0.95-0.81,2.19-0.84,3.36c-0.06,2.53-0.02,5.06-0.07,7.59c-0.02,1.19,0.09,2.47-0.31,3.55
			c-0.32,0.87-1.31,1.5-2.27,2.51c2.13,1.52,1.84,3.74,1.85,5.84C430.29,673.29,430.27,685.8,430.26,698.96z M433.89,616.49
			c0.17-2.51,0.34-5.02,0.5-7.53c0.08-1.24,0.43-2.52-0.41-3.91c-2.56,6.73-3.41,22.96-1.47,28.66c0.37-0.56,0.79-0.92,0.85-1.34
			c0.17-1.31,0.24-2.64,0.27-3.96C433.73,624.7,433.78,620.98,433.89,616.49z M438.88,544.65c0.31-0.1,0.86-0.16,0.88-0.29
			c0.36-2.49,0.71-4.98,0.94-7.48c0.11-1.18,0.02-2.38-0.1-3.56c-0.04-0.41-0.45-0.77-0.89-1.48c-0.96,1.82-1.4,3.32-1.36,4.92
			C438.41,539.27,438.56,541.78,438.88,544.65z M431.17,715.27c-0.05-0.26-0.08-0.52-0.15-0.77c-0.03-0.11-0.14-0.24-0.24-0.27
			c-0.09-0.03-0.22,0.06-0.44,0.14c-0.44,3.33-1.01,6.71-0.59,10.14c0.06,0.48,0.17,1.07,1.1,0.89c0.57-1.41,0.67-2.98,0.66-4.53
			C431.5,719.15,431.32,717.44,431.17,715.27z M554.23,671.18c-0.18-2.1-0.32-4.21-0.58-6.3c-0.05-0.38-0.54-0.71-1.19-1.5
			c-1.12,4.24,0.02,7.7,0.62,11.74C554.2,673.82,554.11,672.76,554.23,671.18z M481.57,456.49c1.17-0.24,2.35-0.43,3.51-0.73
			c0.44-0.11,1.06-0.28,0.71-1.26c-2.16,0.27-4.39,0.48-6.58,0.85c-1.43,0.24-2.83,0.69-4.23,1.11c-0.48,0.15-0.97,0.48-0.48,1.35
			C476.68,458,478.77,456.99,481.57,456.49z M440.62,505.93c0.16,0.59,0.13,1.35,1.08,1.24c1.41-3.39,1.51-5.82,0.2-8.68
			C440.48,500.73,440.6,503.06,440.62,505.93z M426.05,715.59c0.11,1.18-0.66,2.51,0.51,3.75c0.91-3.03,0.86-8.52-0.04-11.26
			c-0.1,0.07-0.28,0.15-0.29,0.22C426.17,710.54,426.12,712.78,426.05,715.59z M681.38,637.97c0.32-1.81,0.71-3.62,0.93-5.44
			c0.07-0.58-0.14-1.34-1.1-1.2c-1.32,4-1.55,6.51-0.73,8.6C680.75,639.37,680.98,638.9,681.38,637.97z M423.04,558.64
			c0.11-2.09,0.23-4.18,0.31-6.27c0.01-0.15-0.34-0.31-0.71-0.62c-1.28,2.85-1.51,5.65-0.72,9.28
			C422.48,559.98,422.7,559.55,423.04,558.64z M431.77,556.32c0.52-4.85,0.52-4.85-0.33-6.6c-1.29,5.58-1.32,5.94-0.55,9.21
			C431.24,558.01,431.45,557.43,431.77,556.32z M518.01,335.3c-0.91-0.85-1.6-2.02-3.52-2.51c1.63,2.15,2.89,3.82,4.17,5.48
			c0.32,0.42,0.71,0.79,1.08,1.17c0.09,0.09,0.22,0.16,0.34,0.2c0.12,0.03,0.26,0.01,0.38,0.01C520,337.8,520,337.8,518.01,335.3z
			 M640.43,496.04c0.4,0.23,0.79,0.46,1.68,0.97c-2.47-3.89-3.8-4.84-6.84-4.89C636.72,493.88,638.61,494.57,640.43,496.04z
			 M427.87,599.56c0.14,0.97-0.15,2.09,0.95,2.84c0.96-3.12,0.85-4.41-0.63-6.27C428.06,597.23,427.97,598.13,427.87,599.56z
			 M674.59,693.95c-0.45,1.37-0.45,1.37,0.06,2.26c1.93-2.68,2.47-3.92,2.87-6.61c-0.36,0.3-0.73,0.49-0.93,0.8
			C675.97,691.42,675.4,692.46,674.59,693.95z M587.78,736.71c-0.14-0.22-0.24-0.49-0.43-0.65c-0.63-0.52-1.24-0.38-1.68,0.25
			c-0.52,0.74-0.39,1.71,0.28,2.11c0.68,0.4,1.28,0.16,1.68-0.48C587.76,737.73,587.77,737.44,587.78,736.71z M669.59,705.32
			c-0.57,1.02-1.2,2.01-1.69,3.06c-0.17,0.36-0.02,0.87,0,1.91c1.72-1.77,2.75-3.17,2.87-5.08
			C670.77,705.18,670.17,705.11,669.59,705.32z M436.57,585.7c0.09-0.92,0.23-1.83,0.27-2.75c0.02-0.49-0.02-1.09-0.8-1.04
			c-1.13,2.73-1.13,2.87-0.04,4.79C436.15,586.5,436.31,586.3,436.57,585.7z M428.18,614.53c-1.44,0.17-0.9,1.33-0.96,2.09
			c-0.06,0.69-0.16,1.62,1.13,1.77C429.05,617.23,428.92,616.02,428.18,614.53z M428.96,460.37c-0.74,0.1-1.51,0.1-2.19,0.33
			c-0.49,0.17-0.78,0.67-0.27,1.3C427.59,462.05,428.79,462.26,428.96,460.37z M638.9,489.15c0.47,0.13,0.93,0.26,1.66,0.46
			c-1.47-2.12-1.47-2.12-3.62-2.04C637.62,488.15,638.09,488.56,638.9,489.15z M476.4,449.04c0.23-0.2,0.45-0.4,0.81-0.72
			c-2.93-0.31-2.93-0.31-4.42,1.15C474.09,449.34,475.05,449.24,476.4,449.04z M441.49,520.41c-0.2-0.39-0.41-0.78-0.61-1.18
			c-0.22,0.26-0.55,0.48-0.64,0.78c-0.1,0.33-0.05,0.75,0.04,1.1c0.05,0.18,0.33,0.3,0.51,0.45
			C441.01,521.29,441.23,521.02,441.49,520.41z M603.65,731.68c-0.08-0.27-0.17-0.55-0.25-0.82c-0.83,0.35-1.69,0.64-2.48,1.07
			c-0.44,0.24-0.79,0.69-0.04,1.42C601.67,732.9,602.54,732.42,603.65,731.68z M454.09,404.8c-0.07,0.71-0.14,1.43-0.22,2.29
			c1.46-0.45,1.53-1.34,1.35-2.28C455.19,404.67,454.63,404.63,454.09,404.8z M426.62,699.35c-0.41,2.91-0.41,2.91,0.24,5.05
			C427.43,702.45,427.44,700.86,426.62,699.35z M428.02,516.22c0.31-1.9,0.31-1.9-0.64-3.41c-0.09,1.41-0.16,2.41-0.18,3.4
			C427.2,516.28,427.6,516.37,428.02,516.22z M688.25,661.3c1.36-0.35,1.19-1.24,0.86-2.28
			C687.87,659.33,687.82,660.14,688.25,661.3z M682.3,624.69c-0.3-0.1-0.59-0.19-0.89-0.29c-0.1,0.51-0.26,1.01-0.28,1.52
			c-0.01,0.19,0.29,0.4,0.44,0.6c0.26-0.23,0.58-0.43,0.75-0.71C682.44,625.62,682.36,625.29,682.3,624.69z M432.79,535.24
			c-0.19,0.79-0.55,1.61,0.17,2.61C433.46,536.02,433.46,536.02,432.79,535.24z M491.55,446.64c-0.78-0.21-1.53-0.33-2.21,0.79
			C490.3,447.57,491.1,447.97,491.55,446.64z M577.22,762.48c-0.26-0.43-0.58-1.02-1.08-0.42c-0.19,0.23-0.03,1.09,0.25,1.32
			C576.96,763.85,577.27,763.43,577.22,762.48z M426.85,737.19c0.24,0.22,0.49,0.43,0.73,0.65c0.05-0.34,0.11-0.69,0.16-1.03
			C427.45,736.86,427.16,736.9,426.85,737.19z M677.13,648.91c0.05,0.11,0.08,0.25,0.17,0.31c0.08,0.06,0.28,0.07,0.32,0.02
			c0.57-0.68,0.56-0.68,0.42-2.56C677.64,647.55,677.4,648.09,677.13,648.91z M433.59,555.73c-0.17,0.19-0.5,0.42-0.47,0.56
			c0.07,0.31,0.34,0.57,0.52,0.86c0.2-0.14,0.58-0.29,0.57-0.42C434.2,556.39,434.02,556.06,433.59,555.73z M645.65,499.5
			c-0.25,0.18-0.49,0.36-0.74,0.54c0.37,0.27,0.89,0.84,1.1,0.74C646.73,500.46,646.3,500,645.65,499.5z M591.69,735.59
			c-0.83,0.64-0.7,1.27,0.06,1.83c0.13,0.1,0.58,0,0.67-0.14C592.84,736.64,592.66,736.08,591.69,735.59z M587.48,455.09
			c-0.26-0.22-0.5-0.5-0.8-0.62c-0.14-0.06-0.41,0.17-0.61,0.26c0.17,0.17,0.31,0.4,0.51,0.48
			C586.8,455.3,587.08,455.24,587.48,455.09z M434.94,572.34c0.01,0.36,0.02,0.73,0.03,1.09c0.24-0.24,0.54-0.45,0.71-0.74
			c0.12-0.21,0.12-0.52,0.06-0.77c-0.02-0.09-0.33-0.16-0.51-0.17C435.17,571.75,435.1,571.96,434.94,572.34z M437.28,577.19
			c-0.28,0-0.56,0.01-0.85,0.01c0.02,0.23,0.05,0.47,0.07,0.7C436.77,577.74,437.04,577.58,437.28,577.19z M549.56,444.57
			c-0.26,0.19-0.52,0.38-0.78,0.56c0.31,0.13,0.63,0.26,0.94,0.4C549.75,445.24,549.78,444.96,549.56,444.57z M427.65,621.99
			c0.12,0.28,0.25,0.55,0.37,0.83c0.11-0.06,0.21-0.12,0.32-0.18C428.18,622.39,428.02,622.13,427.65,621.99z M545.75,516.16
			c-0.1-0.31-0.19-0.61-0.29-0.92c-0.1,0.06-0.3,0.16-0.29,0.17C545.29,515.71,545.44,515.98,545.75,516.16z M674.41,655.57
			c0.13,0.26,0.26,0.52,0.39,0.78c0.17-0.31,0.34-0.62,0.51-0.93C675.04,655.4,674.78,655.38,674.41,655.57z M434.07,550.83
			c-0.08,0.32-0.15,0.64-0.23,0.96c0.19,0,0.39-0.01,0.58-0.01C434.38,551.46,434.33,551.14,434.07,550.83z M426.57,526.22
			c-0.12,0.14-0.24,0.29-0.36,0.43c0.08,0.06,0.17,0.13,0.25,0.19C426.54,526.67,426.62,526.5,426.57,526.22z M462.32,451.3
			c0.2-0.14,0.4-0.28,0.6-0.42c-0.21-0.09-0.49-0.31-0.63-0.25c-0.24,0.12-0.38,0.41-0.57,0.63
			C461.85,451.29,461.97,451.31,462.32,451.3z M420.65,567.8c0.23,0.12,0.45,0.23,0.68,0.35c-0.04-0.32-0.08-0.64-0.11-0.95
			C421.04,567.32,420.87,567.45,420.65,567.8z M539.74,381.84c0.26-1.04,0.26-1.04-0.56-1.69
			C539.31,380.83,539.4,381.3,539.74,381.84z M426.95,682.64c0.05-0.36,0.12-0.73,0.15-1.1c0.01-0.1-0.13-0.2-0.19-0.3
			c-0.15,0.15-0.43,0.3-0.42,0.44C426.51,682.03,426.66,682.37,426.95,682.64z M426.56,522.03c0.4,0.51,0.59,0.16,0.65-0.21
			c0.03-0.16-0.19-0.37-0.29-0.55C426.79,521.45,426.66,521.63,426.56,522.03z M490.67,454.21c-0.02,0.1-0.05,0.2-0.07,0.3
			c0.15-0.05,0.29-0.09,0.44-0.14C490.97,454.31,490.89,454.24,490.67,454.21z M430.77,709.23c0.04-0.3,0.08-0.61,0.12-0.91
			c-0.1,0.04-0.28,0.07-0.28,0.11C430.59,708.67,430.62,708.91,430.77,709.23z M436.63,549.28c-0.02-0.13-0.01-0.27-0.07-0.37
			c-0.03-0.04-0.2,0.01-0.31,0.02C436.35,549.09,436.45,549.24,436.63,549.28z M601.19,728.11c-0.14-0.1-0.28-0.21-0.44-0.28
			c-0.02-0.01-0.13,0.17-0.2,0.27C600.73,728.15,600.91,728.2,601.19,728.11z M428.65,592.13c0.06,0.09,0.11,0.18,0.17,0.27
			C428.8,592.32,428.78,592.23,428.65,592.13z M660.99,688.55c0.15-0.09,0.31-0.18,0.46-0.27c-0.09-0.06-0.22-0.18-0.27-0.16
			C661.09,688.17,661.04,688.31,660.99,688.55z M499.56,319.91c0.1-0.06,0.2-0.12,0.3-0.18
			C499.77,319.75,499.67,319.77,499.56,319.91z M490.24,320.39c-0.03,0.18-0.05,0.35-0.08,0.53c0.11-0.01,0.22-0.02,0.33-0.03
			C490.46,320.71,490.43,320.54,490.24,320.39z M492.7,359.72c0.06,0.07,0.12,0.14,0.18,0.22c0.05-0.13,0.1-0.27,0.15-0.4
			C492.93,359.55,492.84,359.57,492.7,359.72z M445.45,441.53c0.04,0.17,0.09,0.35,0.13,0.52c0.09-0.06,0.19-0.11,0.28-0.17
			C445.77,441.73,445.68,441.59,445.45,441.53z M435.92,508.33c-0.16,0.09-0.33,0.17-0.47,0.29c-0.03,0.02,0.08,0.2,0.13,0.31
			C435.72,508.78,435.85,508.63,435.92,508.33z M426.82,667.88c0.02,0.11,0.04,0.22,0.07,0.34
			C426.89,668.13,426.9,668.03,426.82,667.88z M417.34,670.72l0.14-0.24C417.48,670.47,417.27,670.66,417.34,670.72z M625.2,477.41
			c0.03,0.1,0.06,0.21,0.09,0.31C625.29,477.63,625.29,477.54,625.2,477.41z M426.81,676.68c0.03,0.13,0.05,0.25,0.08,0.38
			C426.9,676.96,426.91,676.85,426.81,676.68z M419.12,590.63c-0.1-0.03-0.19-0.06-0.29-0.09
			C418.9,590.6,418.97,590.65,419.12,590.63z M559.87,447.11c0.02-0.1,0.05-0.21,0.07-0.31c-0.16,0.05-0.31,0.1-0.47,0.15
			C559.55,447.02,559.64,447.08,559.87,447.11z M419.71,581.13l0.18,0.2C419.88,581.33,419.78,581.09,419.71,581.13z M441.3,515.19
			l-0.18-0.09C441.13,515.1,441.27,515.25,441.3,515.19z M434.17,527.96c-0.11,0-0.21,0-0.32,0
			C433.94,527.99,434.03,528.02,434.17,527.96z M440.54,528.12c-0.02-0.18-0.03-0.37-0.05-0.55c-0.1,0.02-0.19,0.05-0.29,0.07
			C440.26,527.81,440.32,527.99,440.54,528.12z M426.81,687.92l-0.07,0.28C426.75,688.19,426.89,687.96,426.81,687.92z
			 M669.26,702.24c0.1-0.04,0.2-0.08,0.29-0.12c-0.12-0.1-0.25-0.19-0.37-0.29C669.16,701.93,669.15,702.04,669.26,702.24z
			 M426.7,692.07c0.04-0.11,0.07-0.22,0.11-0.34C426.75,691.81,426.7,691.89,426.7,692.07z M594.34,766.72
			c-0.13-0.02-0.25-0.05-0.38-0.07C594.05,766.71,594.14,766.77,594.34,766.72z M682.9,617.16l-0.18-0.03
			C682.72,617.12,682.87,617.23,682.9,617.16z"/>
		<path d="M299.99,750.4c1.49,2.77,3.4,5.09,6.51,6.13c0.24,0.08,0.59,0.23,0.66,0.42c0.66,1.88,2.28,2.65,3.8,3.67
			c1.41,0.94,2.51,2.37,3.72,3.61c3.26,3.34,6.51,6.68,9.75,10.04c0.55,0.57,1.19,1.14,1.52,1.83c0.61,1.3,1.72,1.85,2.81,2.64
			c2.69,1.94,5.15,4.2,7.71,6.32c6.57,5.43,13.15,10.87,19.74,16.27c0.92,0.76,2,1.32,2.94,2.06c2.62,2.05,5.17,4.18,7.8,6.21
			c1.47,1.14,3.03,2.16,4.57,3.2c3.3,2.23,6.61,4.45,9.93,6.66c4.32,2.88,8.59,5.83,12.98,8.6c4.96,3.13,10.03,6.07,15.02,9.14
			c2.2,1.36,3,2.56,2.3,3.22c-1.23,1.17-2.55,0.28-3.74-0.1c-7.51-2.39-14.76-5.45-21.81-8.94c-6.09-3.02-12.06-6.26-18.04-9.5
			c-2.46-1.33-4.8-2.88-7.15-4.39c-5.38-3.45-11.02-6.5-16.11-10.41c-3.17-2.43-6.31-4.91-9.46-7.36c-0.95-0.73-1.88-1.49-2.88-2.15
			c-6.55-4.39-12.58-9.42-18.39-14.73c-1.28-1.17-2.39-2.51-3.61-3.73c-1.31-1.32-2.64-2.63-4.01-3.89
			c-2.06-1.9-4.14-3.75-5.45-6.32c-0.47-0.93-1.18-1.88-2.02-2.44c-3.19-2.11-5.2-5.31-7.68-8.06c-2.14-2.37-4.03-4.97-6.1-7.4
			c-1.12-1.31-2.27-2.63-3.61-3.71c-2.62-2.12-4.82-4.6-6.69-7.38c-2.3-3.42-4.45-6.95-6.76-10.37c-2.16-3.2-4.38-6.37-6.7-9.45
			c-6.45-8.55-11.64-17.86-16.37-27.42c-4.14-8.35-8.02-16.84-12.01-25.26c-0.28-0.6-0.55-1.22-0.77-1.84
			c-1.5-4.13-2.93-8.29-4.49-12.4c-4.37-11.48-7.68-23.27-10.91-35.1c-2.36-8.63-4.16-17.36-5.56-26.18
			c-0.92-5.79-1.57-11.62-2.25-17.44c-0.59-5.03-1.09-10.07-1.55-15.11c-0.17-1.85-0.16-3.73-0.16-5.59
			c-0.03-9.73-0.11-19.46-0.03-29.19c0.03-3.59,0.37-7.18,0.71-10.76c0.69-7.29,0.95-14.63,2.21-21.86
			c0.99-5.64,1.8-11.32,2.95-16.93c2.02-9.92,4.22-19.82,7.14-29.52c2.84-9.44,5.66-18.89,9.44-28.02
			c1.78-4.31,3.32-8.72,5.21-12.98c2.59-5.84,5.34-11.62,8.15-17.36c4.39-8.99,9.18-17.76,14.71-26.1c2.72-4.1,5.71-8.01,8.5-12.06
			c2.12-3.07,4.03-6.28,6.19-9.31c4.48-6.3,9.01-12.58,14.29-18.24c7.09-7.58,13.81-15.48,21.52-22.51
			c6.4-5.83,12.61-11.86,19.24-17.44c8.98-7.56,18.21-14.77,28.19-20.99c3.96-2.47,7.8-5.12,11.77-7.55
			c2.72-1.67,5.7-2.92,8.35-4.69c4.23-2.83,8.84-4.92,13.31-7.28c7.31-3.86,14.98-6.92,22.65-9.98c1.24-0.49,2.55-0.84,3.73-1.44
			c6.55-3.36,13.54-5.56,20.47-7.92c0.5-0.17,0.99-0.4,1.5-0.54c8.37-2.23,16.57-5.06,25.08-6.75c3.39-0.67,6.74-1.58,10.15-2.17
			c3.4-0.59,6.85-0.93,10.28-1.38c0.79-0.11,1.6-0.17,2.36-0.38c7.63-2.12,15.42-2.94,23.31-3.16c3.72-0.1,7.44-0.46,11.16-0.75
			c7.33-0.57,14.65,0.05,21.98,0.05c2.8,0,5.6-0.09,8.39,0.05c4.12,0.21,8.24,0.52,12.35,0.9c3.71,0.35,7.4,0.87,11.1,1.29
			c13.39,1.52,26.62,3.91,39.66,7.3c13.42,3.5,26.66,7.53,39.57,12.62c3.97,1.56,8.01,2.92,12,4.43c1.62,0.61,3.19,1.35,4.77,2.06
			c1.34,0.6,2.63,1.29,3.97,1.88c6.1,2.67,12.29,5.17,18.3,8.03c5.41,2.58,10.7,5.42,15.9,8.4c14.71,8.44,28.61,18.05,41.57,29.01
			c7.83,6.62,15.62,13.3,23.42,19.97c0.6,0.52,1.14,1.12,1.68,1.7c2.53,2.74,5,5.53,7.59,8.22c2.68,2.78,5.51,5.41,8.17,8.21
			c2.2,2.31,4.46,4.63,6.27,7.23c1.05,1.51,2.05,2.9,3.36,4.22c2.04,2.06,3.73,4.52,5.27,6.99c0.77,1.23,1.3,2.55,2.41,3.58
			c0.54,0.49,0.82,1.37,0.99,2.13c0.42,1.9,1.39,3.43,2.73,4.79c0.46,0.47,0.85,1.02,1.22,1.58c2.33,3.56,4.72,7.07,7.94,10.26
			c0.11,0.23,0.17,0.19,0.17,0.19c1.28,1.84,2.59,3.67,3.84,5.53c1.03,1.54,2,3.12,2.98,4.7c0.85,1.38,1.54,2.76,0.78,4.48
			c-0.24,0.54-0.25,1.39,0.01,1.9c1.57,3.06,3.21,6.08,4.91,9.06c0.37,0.65,1.12,1.1,1.83,1.77c0.02,2.3,0.84,4.52,2.13,6.56
			c0.37,0.59,0.91,0.97,1.79,0.51c0.12-0.09,0.11-0.08,0.11-0.08c1.23,1.16,1.95,2.59,2.08,4.51c-0.56,0.28-0.92,0.28-1.28,0.24
			c-0.01-0.04-0.11-0.14-0.11-0.14s0.13,0.17,0.2,0.32c0.96,1.06,0.96,1.06,1.53-0.14c3.03,4.44,4.72,9.47,6.27,14.54
			c0.29,0.95,0.06,2.09-0.07,3.12c-0.45,3.48,0.87,6.49,2.48,9.41c0.22,0.4,0.86,0.56,1.51,0.89c0.21,0.05,0.22,0.06,0.22,0.06
			c-0.4,2.26-0.4,4.44,0.71,6.58c0.52,1,0.59,2.24,0.98,3.86c0.58-0.77,0.86-1.13,1.13-1.5c0.24,0.06,0.59,0.05,0.69,0.2
			c0.79,1.23,1.63,2.47,0.61,4.11c-0.42,0-0.64-0.07-0.87-0.14c0.21,0.21,0.41,0.43,0.62,0.64c0.22,1.45,0.35,2.92,0.67,4.34
			c0.67,2.98,1.23,6.04,3.78,8.18c-0.47,1.97-0.9,3.85,1.02,5.22c-0.96,4.06-0.56,7.94,0.47,11.89c1,3.85,1.46,7.85,2.07,11.8
			c0.61,3.96,1.25,7.85,3.4,11.4c0.85,1.4,0.98,3.29,1.2,4.99c0.2,1.58,0.01,3.2,0.12,4.79c0.29,4.51,0.65,9.02,0.98,13.53
			c0.43,5.84,0.54,11.69,0.41,17.55c-0.15,6.52-0.67,13.04,0.08,19.56c0.14,1.18,0.2,2.43,0,3.59c-1.4,8.16-0.81,16.49-2.11,24.65
			c-1.07,6.7-1.76,13.45-3.35,20.07c-0.74,3.06-1.11,6.27-1.75,9.38c-0.59,2.86-1.38,5.68-2.1,8.51c-0.1,0.39-0.29,0.75-0.38,1.14
			c-1.06,4.67-2.05,9.36-3.18,14.02c-1.1,4.51-1.71,9.19-4.3,13.23c-0.43,0.66-0.67,1.45-0.95,2.2
			c-3.82,10.09-7.52,20.23-11.49,30.27c-1.76,4.45-3.8,8.83-6.13,13.01c-5.25,9.42-10.55,18.84-16.23,28
			c-6.88,11.11-14.42,21.78-22.89,31.76c-4.05,4.77-8.05,9.6-12.27,14.23c-3.68,4.04-7.57,7.88-11.47,11.71
			c-10.19,10-20.81,19.52-32.37,27.92c-15.22,11.06-30.85,21.47-47.86,29.63c-12.86,6.17-25.93,11.83-39.35,16.71
			c-9.67,3.51-19.52,6.35-29.45,8.91c-5.54,1.43-11.22,2.34-16.86,3.36c-8.92,1.6-17.82,3.36-26.87,4.1
			c-4.78,0.39-9.57,0.72-14.35,1.12c-7.71,0.64-15.43,1.14-23.16,0.82c-10.51-0.43-21.05-0.55-31.51-1.82
			c-11.25-1.37-22.41-3.27-33.47-5.74c-3.12-0.7-6.21-1.5-9.31-2.26c-1.04-0.25-2.06-0.62-3.11-0.74
			c-4.69-0.53-9.01-2.36-13.48-3.68c-1.17-0.34-2.32-0.77-2.97-1.87c-0.74-1.25-2.01-1.64-3.17-2.29c-1.85-1.03-3.62-2.22-5.38-3.4
			c-0.27-0.18-0.36-0.63-0.68-1.25c0.71-0.04,1.21-0.15,1.68-0.08c0.92,0.14,1.81,0.47,2.73,0.57c1.33,0.14,2.31-0.5,2.92-1.68
			c0.18-0.35,0.27-0.75,0.4-1.13c0.95-2.83,1.42-3.18,4.18-3.01c0.4,0.02,0.8,0.06,1.19,0.15c6.48,1.52,12.95,3.1,19.45,4.55
			c5.32,1.19,10.65,2.42,16.03,3.27c7.5,1.18,15.05,2.01,22.58,2.99c0.4,0.05,0.8,0.09,1.19,0.1c15.44,0.69,30.87,1.76,46.34,0.93
			c10.78-0.58,21.51-1.72,32.18-3.45c12.25-1.98,24.37-4.57,36.29-7.95c15.53-4.41,30.74-9.77,45.32-16.77
			c5.77-2.77,11.53-5.53,17.19-8.51c4.12-2.17,8.08-4.65,12.09-7.02c2.41-1.42,4.81-2.86,7.16-4.38c1.67-1.08,3.28-2.28,4.88-3.47
			c4.17-3.09,8.28-6.28,12.5-9.3c9.12-6.54,17.18-14.33,25.62-21.66c3.92-3.41,7.33-7.33,10.97-11.03
			c5.41-5.51,10.86-10.98,15.63-17.07c0.71-0.91,1.62-1.66,2.73-2.78c0.26,1.17,0.43,1.88,0.64,2.83c0.49-0.12,1.07-0.1,1.43-0.37
			c1.26-0.98,2.49-1.99,3.63-3.11c0.95-0.93,1.8-1.98,2.59-3.04c5.83-7.78,11.98-15.34,17.01-23.69c0.68-1.13,1.17-2.38,1.94-4.08
			c0.86-1.98,1.51-3.46,2.39-5.09c0.89-0.79,1.71-1.34,2.22-2.09c2.53-3.75,5.09-7.49,7.41-11.38c1.77-2.97,3.11-6.18,4.76-9.22
			c2.1-3.86,4.34-7.64,5.62-11.89c0.23-0.75,0.69-1.44,1.02-2.16c1.05-2.3,2.24-4.54,3.12-6.91c2.21-5.99,4.9-11.82,6.21-18.12
			c2.48-4.66,2.74-9.98,4.46-14.88c1.49-4.27,2.62-8.67,3.87-13.02c0.4-1.4,0.77-2.83,1.04-4.26c1.32-7.07,2.61-14.14,3.89-21.21
			c0.47-2.62,1.2-5.25,1.24-7.88c0.05-2.98,0.62-5.81,1.22-8.68c1.11-5.37,1.39-10.8,1.13-16.29c-0.19-3.98-0.31-8.03,0.19-11.97
			c0.78-6.14,0.83-12.21-0.07-18.31c-0.19-1.31-0.32-2.66-0.26-3.98c0.28-5.74,0.05-11.46-0.68-17.15
			c-0.71-5.54-1.48-11.08-2.25-16.62c-0.31-2.24-0.71-4.47-1.07-6.71c-0.22-1.31-0.43-2.63-0.69-3.93c-0.07-0.36-0.33-0.68-0.89-1.8
			c-0.26,1.55-0.45,2.04-0.4,2.5c0.23,1.98,0.58,3.95,0.81,5.94c1.52,12.7,2.69,25.42,3.55,38.18c0.11,1.59-0.03,3.19-0.03,4.79
			c0,5.06-0.1,10.13,0.07,15.18c0.17,5.08,0.08,10.1-0.84,15.12c-0.55,3.01-0.95,6.05-1.26,9.1c-0.32,3.18-0.28,6.4-0.67,9.56
			c-0.69,5.55-1.58,11.07-2.41,16.6c-0.1,0.66-0.27,1.3-0.42,1.95c-1.35,5.7-2.73,11.39-4.06,17.1c-0.51,2.21-0.94,4.43-1.4,6.65
			c-1.24,6-4.1,11.55-5.01,17.65c-0.13,0.9-0.65,1.74-0.99,2.61c-3.38,8.54-6.76,17.09-10.15,25.63c-0.64,1.6-1.25,3.23-2.01,4.77
			c-2.91,5.83-5.8,11.67-8.85,17.43c-1.93,3.65-3.22,7.58-5.45,11.1c-1.26,1.99-2.21,4.27-2.4,6.88c-1.82,1.17-3.37,2.25-2.43,4.56
			c-1.19,0.34-2.15,0.96-2.9,1.99c-1.96,2.68-3.99,5.32-5.98,7.98c-1.35,1.81-2.66,3.65-4,5.47c-0.39,0.54-0.91,1.01-1.21,1.59
			c-2.3,4.46-6.05,7.75-9.17,11.54c-0.22,0.27-0.63,0.38-1.53,0.9c0.52-1.09,0.7-1.69,1.05-2.17c1.11-1.5,2.29-2.95,3.43-4.42
			c4.47-5.81,8.77-11.72,12.27-18.19c1.2-2.22,2.83-4.2,4.15-6.36c4.16-6.82,8.28-13.66,12.38-20.52c0.75-1.25,1.37-2.59,1.99-3.92
			c2.48-5.3,4.98-10.6,7.4-15.94c1.48-3.27,2.89-6.58,4.21-9.92c2.04-5.19,4.06-10.4,5.92-15.66c1.11-3.13,1.87-6.38,2.83-9.57
			c1.26-4.21,2.58-8.4,3.81-12.62c2.13-7.29,3.72-14.7,5.04-22.18c1.5-8.53,3.17-17.03,4.07-25.65c0.07-0.66,0.16-1.32,0.28-1.98
			c0.72-3.94,1.12-7.89,1.2-11.91c0.11-5.72,0.7-11.44,0.81-17.16c0.14-7.06,0.12-14.13-0.08-21.19c-0.15-5.05-0.7-10.1-1.11-15.14
			c-0.31-3.85-0.65-7.7-1.05-11.54c-1.3-12.62-3.99-25-6.8-37.34c-1.45-6.35-3.43-12.59-5.37-18.82c-1.86-5.98-3.88-11.91-5.98-17.8
			c-1.21-3.38-2.72-6.66-4.09-9.98c-0.96-2.34-1.91-4.69-2.86-7.03c-0.2-0.49-0.3-1.05-0.6-1.48c-2.47-3.55-3.76-7.6-5.27-11.59
			c-1.37-3.59-3.14-7.03-5.35-10.25c-2.26-3.29-4.28-6.74-6.31-10.18c-0.67-1.13-1.03-2.44-1.48-3.69c-0.87-2.41-2.1-4.53-4-6.35
			c-1.81-1.74-3.56-3.66-4.86-5.8c-2.23-3.68-5.04-6.89-7.7-10.2c-10.04-12.47-20.7-24.39-32.9-34.82
			c-8.5-7.27-16.97-14.61-26.31-20.84c-5.98-3.99-11.76-8.33-17.91-12.03c-9.36-5.63-18.82-11.13-28.51-16.18
			c-12.06-6.29-24.54-11.71-37.43-16.11c-7.94-2.71-15.94-5.28-23.96-7.76c-3.56-1.1-7.22-1.9-10.87-2.67
			c-6.78-1.44-13.55-2.96-20.38-4.06c-6.83-1.09-13.74-1.76-20.63-2.5c-4.24-0.45-8.5-0.67-12.75-1.02
			c-12.38-1.03-24.76-0.73-37.15-0.09c-9.46,0.49-18.89,1.33-28.23,2.86c-8.8,1.45-17.69,2.49-26.29,5.03
			c-0.51,0.15-1.03,0.3-1.55,0.39c-8.04,1.38-15.74,4.07-23.52,6.38c-15.88,4.71-31.19,10.89-45.88,18.57
			c-4.13,2.16-8.26,4.34-12.36,6.56c-4.58,2.48-8.97,5.23-13.15,8.35c-1.59,1.19-3.41,2.07-5.1,3.12c-4.4,2.73-9.08,5.05-12.82,8.75
			c-0.56,0.55-1.27,0.94-1.94,1.37c-4.17,2.66-8.12,5.52-11.45,9.26c-1.65,1.85-3.85,3.27-5.93,4.69c-3.23,2.2-5.89,4.96-8.46,7.85
			c-0.79,0.89-1.6,1.78-2.5,2.57c-5.69,5.02-11.45,9.98-16.4,15.77c-2.34,2.73-4.52,5.59-6.76,8.4c-1.41,1.77-2.8,3.56-4.19,5.34
			c-1.97,2.52-3.9,5.06-5.91,7.55c-1.17,1.45-2.33,2.95-3.72,4.15c-2.17,1.88-3.86,4.05-5.01,6.64c-1.8,4.05-4.32,7.65-6.81,11.28
			c-0.68,0.99-1.37,2-2.24,2.81c-1.8,1.67-3.06,3.69-4.14,5.84c-1.78,3.57-3.49,7.17-5.24,10.76c-0.53,1.08-1.09,2.13-1.64,3.2
			c-1.94,3.76-4.16,7.34-5.74,11.32c-1.91,4.81-4.53,9.33-6.74,14.02c-0.97,2.04-1.78,4.17-2.52,6.3
			c-2.11,6.03-4.26,12.06-6.2,18.15c-1.69,5.33-3.12,10.74-4.66,16.12c-0.07,0.26-0.1,0.53-0.18,0.78
			c-2.69,8.27-4.04,16.81-5.26,25.38c-0.19,1.32-0.39,2.65-0.77,3.92c-0.37,1.22-0.98,2.37-1.62,3.88c0.97,2.39,0.2,5.09-0.7,8.07
			c-0.12,0.28-0.07,0.23-0.07,0.23c0.72,2.48,0.51,5,0.35,7.52c-0.42,6.76-0.91,13.51-1.3,20.28c-0.2,3.51-0.13,3.52-1.52,6.51
			c0.25,0.56,0.52,1.15,0.62,1.37c-0.49,1.97-1.07,3.58-1.26,5.24c-0.23,1.97-0.22,3.98-0.15,5.97c0.23,7.17,0.52,14.33,1.53,21.44
			c0.18,1.29,0.52,2.61,1.07,3.78c0.37,0.78,0.58,1.44,0.32,2.25c-0.35,1.12-0.05,2.1,0.69,2.97c0.91,1.08,1.11,2.38,1.23,4
			c0.02,0.28,0.03,0.27,0.03,0.27c-1.01,0.08-1.35,0.75-1.36,1.64c-0.04,3.52,0.54,6.89,2.65,10.06c-0.79,1.75-1.14,3.66-0.29,5.63
			c0.21,0.48,0.29,1.04,0.3,1.56c0.11,4.71,1.73,9.15,2.44,13.76c0.24,1.55,1.04,3.01,1.51,4.53c0.55,1.77,1.07,3.55,1.52,5.34
			c0.29,1.16,0.31,2.4,0.68,3.53c2.43,7.47,4.19,15.17,7.33,22.41c1.48,3.42,3.03,6.81,4.53,10.22c0.32,0.73,0.56,1.49,0.81,2.25
			c0.21,0.63,0.25,1.35,0.57,1.91c2.7,4.73,4.34,10.05,7.57,13.66c0.54,2.16,0.87,3.68,1.32,5.18c0.23,0.76,0.59,1.5,0.99,2.18
			c4.46,7.57,8.1,15.61,13.05,22.91c0.45,0.66,0.84,1.36,1.3,2.01c5.08,7.17,10.17,14.34,15.27,21.5c1.55,2.17,3.07,4.29,5.94,5.05
			c1.57,0.42,2.48,1.95,3.33,3.64c0.12,0.23,0.12,0.21,0.09,0.38c-0.01,0.61,0.01,1.05,0.03,1.49c0-0.01-0.02-0.02-0.02-0.02
			c0.8,1.82,1.96,3.35,3.81,4.65C300,750.4,299.99,750.4,299.99,750.4z M230.48,439.02c-0.02,0.06-0.05,0.12-0.11,0.25
			C230.37,439.26,230.38,439.18,230.48,439.02z M276.19,343.85c2.36-3.23,4.62-6.53,7.09-9.66c2.89-3.66,5.94-7.19,8.96-10.74
			c1.64-1.92,3.36-3.77,5.06-5.65c1.6-1.77,3.2-3.55,4.84-5.3c0.91-0.97,1.87-1.9,2.83-2.82c4.35-4.12,8.68-8.26,13.09-12.32
			c4.22-3.88,8.52-7.67,12.78-11.49c1.39-1.24,2.77-2.5,4.19-3.69c2.04-1.71,4.23-3.25,6.14-5.1c1.47-1.42,3.11-2.46,4.84-3.47
			c3.09-1.81,6.35-3.48,9.07-5.76c3.31-2.77,7.05-4.78,10.6-7.1c3.89-2.54,8-4.76,12.14-6.89c4.86-2.49,9.14-5.99,14.26-8.01
			c2.48-0.98,4.94-1.98,7.39-3.02c5.89-2.5,11.75-5.04,17.64-7.53c2.22-0.94,4.41-1.9,6.18-3.61c0.8-0.77,1.74-1.05,2.86-1.23
			c2.22-0.35,4.44-0.85,6.6-1.48c3.2-0.92,6.33-2.1,9.53-2.98c3.35-0.92,6.65-1.88,9.78-3.44c1.16-0.58,2.53-0.75,3.82-1.05
			c2.19-0.51,4.55-0.63,6.53-1.57c1.88-0.89,3.59-1.5,5.67-1.3c1.21,0.11,2.26-0.49,2.74-2.09c-2.36-0.38-4.4,0.04-6.48,0.44
			c-3.65,0.72-7.01,2.49-10.79,2.75c-2.8,0.19-5.49,0.93-8.12,1.97c-2.22,0.88-4.59,1.37-6.89,2.07c-1.27,0.39-2.53,0.83-3.78,1.26
			c-1.63,0.57-3.24,1.2-4.89,1.73c-4.82,1.55-9.73,2.84-14.45,4.63c-5.73,2.17-11.35,4.64-16.63,7.79c-0.91,0.54-1.9,0.98-2.88,1.38
			c-6.19,2.51-12.05,5.68-17.85,8.97c-2.09,1.18-4.06,2.6-6.21,3.62c-3.16,1.5-5.97,3.5-8.8,5.51c-1.52,1.08-2.98,2.26-4.57,3.21
			c-5.73,3.41-10.99,7.5-16.4,11.37c-1.51,1.08-2.84,2.43-4.38,3.48c-10.15,6.96-19.32,15.1-28.12,23.64
			c-7.26,7.05-14.18,14.45-20.71,22.19c-2.24,2.65-4.41,5.34-6.61,8.02c-2.62,3.19-5.37,6.29-7.84,9.59
			c-3.28,4.37-6.38,8.87-9.49,13.36c-3.11,4.49-4.9,9.78-8.48,13.98c-0.17,0.2-0.23,0.48-0.37,0.71c-2.82,4.99-5.72,9.93-8.45,14.97
			c-2.73,5.03-5.64,9.97-7.56,15.42c-0.79,2.24-2.08,4.31-3.12,6.47c-0.69,1.44-1.35,2.89-1.96,4.36c-0.41,0.98-0.61,2.06-1.08,3
			c-3.68,7.29-6.34,14.98-8.7,22.75c-2.6,8.54-5.02,17.14-7.29,25.77c-1.39,5.28-2.48,10.64-3.48,16.01
			c-0.81,4.32-1.26,8.7-1.9,13.05c-0.61,4.08-1.34,8.15-1.87,12.25c-0.44,3.43-0.71,6.89-0.97,10.35c-0.08,1.01-0.17,2.17,1.17,2.85
			c1.27-0.87,1.12-2.28,1.26-3.54c0.76-6.75,1.42-13.52,2.27-20.26c0.48-3.83,1.2-7.63,1.9-11.42c0.44-2.36,1.02-4.69,1.59-7.02
			c1.93-7.9,3.59-15.87,5.89-23.66c2.94-9.97,6.14-19.86,9.98-29.54c0.25-0.62,0.56-1.24,0.67-1.88c0.76-4.41,2.87-8.29,4.79-12.24
			c3.54-7.32,7.14-14.6,10.82-21.85c1.62-3.2,3.63-6.21,5.22-9.43c2.77-5.64,5.72-11.14,10.08-15.76c0.55-0.58,0.99-1.26,1.46-1.9
			C269.82,352.74,272.85,348.52,276.19,343.85z M208.76,549.64c0.09,1.56,0.03,3.15,1.24,4.86c0.37-0.74,0.74-1.16,0.76-1.59
			c0.11-1.85,0.3-3.73,0.11-5.57c-0.52-5.19-0.22-10.35,0.16-15.53c0.21-2.78,0.16-5.58,0.13-8.37c-0.01-0.73-0.12-1.63-1.48-1.72
			c-0.25,0.79-0.67,1.62-0.76,2.48c-0.18,1.72-0.23,3.45-0.23,5.18C208.7,535.9,208.73,542.41,208.76,549.64z M223.36,615.7
			c-0.48-1.27-0.39-2.83-1.89-3.98c-0.63,1.8,0.01,3.18,0.32,4.55c2.17,9.59,4.95,19.02,7.91,28.39c1.12,3.54,2.56,6.98,3.89,10.45
			c0.17,0.45,0.46,1.01,1.38,0.41C230.17,642.78,226.37,629.67,223.36,615.7z M480.99,212.92c-1.39,0.39-2.82,0.69-4.17,1.21
			c-0.69,0.26-1.31,0.84-1.78,1.43c-0.16,0.21,0.1,1.04,0.41,1.26c0.37,0.27,1.01,0.31,1.51,0.25c2.61-0.36,5.23-0.69,7.8-1.24
			c1.4-0.29,2.72-0.95,4.05-1.52c0.52-0.22,0.77-0.71,0.28-1.51C486.65,212.41,484.09,211.98,480.99,212.92z M853.98,472.62
			c-0.31,0.02-0.88,0.04-0.88,0.07c-0.02,0.79-0.08,1.59,0.06,2.36c0.66,3.52,1.37,7.04,2.07,10.55c0.34,1.69,0.69,3.39,1.1,5.06
			c0.1,0.43,0.24,1.1,1.18,0.64C856.97,485.12,855.36,479.09,853.98,472.62z M214.6,541.91c-0.02-1.59,0.02-3.19-0.07-4.77
			c-0.08-1.52,0.26-3.09-0.43-4.6c-0.34,0.59-0.48,1.19-0.5,1.8c-0.08,3.71-0.17,7.43-0.18,11.14c0,2.52,0.11,5.04,0.22,7.55
			c0.02,0.47,0.06,1.13,1.05,0.96c0.68-1.57,0.48-3.29,0.38-4.99C214.97,546.89,214.78,544.77,214.6,541.91z M214.75,561.38
			c-0.23,0.26-0.66,0.53-0.65,0.78c0.15,4.48,0.32,8.97,1.32,13.36c0.03,0.12,0.36,0.16,0.56,0.24
			C216.29,570.62,216.01,566.47,214.75,561.38z M210.05,562.45c0,1.19,0.01,2.39-0.01,3.58c-0.03,1.72,0.38,3.28,1.85,5.47
			c-0.1-4.59-0.51-8.25-1.04-11.89c-0.02-0.13-0.41-0.21-0.76-0.38C209.51,560.1,209.81,561.01,210.05,562.45z M221.69,468.03
			c-0.01,0.83-0.59,1.73,0.44,2.74c1.73-3.38,1.65-7.01,2.63-10.35c0.04-0.13-0.26-0.36-0.58-0.77c-0.43,0.9-0.94,1.64-1.16,2.46
			C222.55,463.89,222.21,465.7,221.69,468.03z M774.38,752.4c-0.8,1.29-1.96,2.36-2.53,3.82c0.32,0.14,0.5,0.27,0.53,0.23
			c1.81-1.68,3.61-3.36,5.38-5.08c0.26-0.25,0.38-0.69,0.45-1.07c0.04-0.2-0.13-0.52-0.3-0.65c-0.18-0.13-0.6-0.23-0.71-0.12
			C776.34,750.32,775.53,751.16,774.38,752.4z M215.94,513.42c0-1.79,0-1.79-0.73-2.96c-1.05,3.07-1.05,3.55,0.19,5.89
			C215.6,515.36,215.75,514.63,215.94,513.42z M220.9,477.9c0.18-1.19,1.06-2.34,0.24-4.1c-1.12,1.6-1.48,2.92-1.32,4.4
			C219.82,478.23,220.41,478.19,220.9,477.9z M844.42,413.48c0.37,0.39,0.83,0.78,1.31,0.32c0.56-0.54,0.32-1.23-0.09-1.75
			c-0.2-0.26-0.7-0.52-0.96-0.44C843.85,411.87,843.93,412.52,844.42,413.48z M215.03,521.45c-0.27,0.1-0.73,0.14-0.79,0.32
			c-0.27,0.8-0.76,1.68,0.25,2.4C215.52,523.55,215.17,522.61,215.03,521.45z M216.57,505.63c0-0.89,0-1.77,0-2.66
			c-0.16-0.02-0.31-0.04-0.47-0.06c-0.19,0.99-0.37,1.97-0.56,2.96C215.83,505.9,216.13,505.92,216.57,505.63z M216.52,497.91
			c0.05,0.12,0.08,0.26,0.17,0.35c0.08,0.08,0.3,0.15,0.33,0.11c0.85-1.01,0.75-2.12,0.33-3.62
			C216.61,495.77,216.65,496.7,216.52,497.91z M212.47,576.72c-0.19-0.29-0.37-0.58-0.56-0.87c-0.17,0.17-0.47,0.32-0.48,0.5
			c-0.02,0.37,0.06,0.76,0.2,1.1c0.06,0.15,0.39,0.18,0.6,0.26C212.3,577.48,212.38,577.24,212.47,576.72z M225.43,456.35
			c0.58-0.54,1.08-1.09,0.32-1.88C224.97,454.95,224.61,455.52,225.43,456.35z M216.81,583.29c0.03-0.24,0.12-0.49,0.07-0.72
			c-0.05-0.21-0.24-0.4-0.36-0.59c-0.12,0.18-0.37,0.39-0.34,0.53C216.26,582.82,216.47,583.1,216.81,583.29z M220.21,605.17
			c-0.07-0.19-0.14-0.39-0.22-0.58c-0.1,0.06-0.19,0.11-0.29,0.17C219.82,604.93,219.94,605.09,220.21,605.17z M768.9,759.24
			c-0.01,0.2-0.03,0.4-0.04,0.61c0.19-0.06,0.39-0.12,0.58-0.19C769.32,759.5,769.2,759.34,768.9,759.24z M533.12,209.25
			c-0.04-0.18-0.07-0.36-0.11-0.54c-0.17,0.08-0.34,0.16-0.51,0.24C532.65,209.07,532.79,209.19,533.12,209.25z M235.34,425.95
			c0.05-0.18,0.1-0.36,0.15-0.54c-0.1,0-0.2,0-0.3,0C235.19,425.6,235.19,425.78,235.34,425.95z M599.58,227.57
			c-0.11,0-0.24-0.04-0.33,0c-0.05,0.02-0.03,0.18-0.05,0.28C599.36,227.78,599.51,227.72,599.58,227.57z M843.46,408.34
			c-0.11-0.04-0.23-0.09-0.34-0.13C843.2,408.28,843.28,408.34,843.46,408.34z M492.01,213.09c0.11,0.14,0.22,0.28,0.33,0.42
			c0.07-0.07,0.15-0.14,0.22-0.21C492.42,213.2,492.27,213.09,492.01,213.09z M219.11,484.58c-0.04-0.09-0.08-0.18-0.11-0.27
			c-0.06,0.15-0.13,0.29-0.19,0.44C218.89,484.73,218.98,484.71,219.11,484.58z M510.56,211.04c-0.16,0.07-0.33,0.14-0.49,0.21
			c0.09,0.06,0.19,0.18,0.26,0.16C510.43,211.38,510.49,211.26,510.56,211.04z M515.94,210.3c0.05-0.08,0.09-0.16,0.14-0.23
			c-0.14,0-0.28-0.01-0.42-0.01C515.71,210.13,515.75,210.21,515.94,210.3z M233.16,432.55c-0.09,0.03-0.18,0.07-0.26,0.1
			C232.98,432.64,233.05,432.64,233.16,432.55z M218.75,597.12c-0.1-0.05-0.19-0.09-0.29-0.14
			C218.53,597.04,218.59,597.11,218.75,597.12z M214.41,595.31l0.11-0.14C214.52,595.17,214.37,595.26,214.41,595.31z
			 M227.39,448.48l0.02,0.26C227.42,448.74,227.47,448.48,227.39,448.48z M214.31,528.94l0.14-0.18
			C214.44,528.76,214.25,528.87,214.31,528.94z M228.31,445.21l0.17,0.03C228.47,445.24,228.33,445.14,228.31,445.21z
			 M859.07,507.12l-0.02-0.15C859.05,506.97,859.01,507.11,859.07,507.12z M860.96,539.93l-0.02-0.16
			C860.94,539.78,860.9,539.93,860.96,539.93z"/>
		<path d="M465.37,293.19c0.58,0.35,0.94,0.54,1.25,0.78c2.85,2.23,9.02,9.39,11.26,13.11c-0.6,0.6-1.26,1.21-1.85,1.87
			c-0.61,0.68-1.14,1.42-1.83,2.29c-0.68-0.32-1.34-0.48-1.79-0.88c-1.57-1.42-3.06-2.94-4.6-4.41c-0.75-0.71-1.54-1.38-2.58-2.32
			c-0.41,0.86-0.81,1.38-0.91,1.96c-0.27,1.57-0.39,3.16-0.63,4.74c-0.31,2.1-0.55,4.23-1.04,6.29c-0.54,2.26-1.86,4.03-4.07,5.26
			c-1.2-1.22-1.52-2.63-1.53-4.09c-0.09-7.05-0.14-14.11-0.18-21.16c0-0.66,0.08-1.33,0.23-1.98c0.31-1.29,1.24-2.2,2.53-2.15
			C461.47,292.57,463.3,292.86,465.37,293.19z M461.66,306.95c0.61,0.34,0.56-0.16,0.54-0.47c-0.01-0.13-0.29-0.25-0.45-0.37
			C461.7,306.33,461.64,306.55,461.66,306.95z M461.59,314.2c0.1-0.03,0.2-0.07,0.3-0.1c-0.12-0.1-0.25-0.2-0.37-0.31
			C461.5,313.9,461.49,314,461.59,314.2z M471.57,301.87c-0.15-0.02-0.29-0.04-0.44-0.06C471.26,301.88,471.4,301.94,471.57,301.87z
			 M467.41,297.18c-0.12,0.04-0.24,0.08-0.36,0.12C467.16,297.29,467.26,297.29,467.41,297.18z"/>
		<path d="M548.87,295.09c-0.16,4.45-0.28,8.57-0.43,12.7c-0.17,4.88-1.48,9.4-4.03,13.54c-1.49,0.08-1.17-1.33-1.8-1.89
			c-0.69-0.62-1.47-1.28-1.81-2.09c-0.39-0.93-0.53-2.06-0.47-3.09c0.19-2.79,0.49-5.57,0.85-8.34c0.29-2.21,0.03-4.2-1.76-6.05
			c-3.47,2.2-6.92,4.4-10.38,6.6c-0.53-0.8,0.14-1.04,0.46-1.32c2.61-2.27,5.26-4.5,7.88-6.76c1.3-1.13,2.64-2.23,3.83-3.48
			c1.44-1.51,3.16-2.41,5.14-2.91c1.7-0.43,2.22-0.03,2.54,1.98C548.95,294.23,548.9,294.5,548.87,295.09z"/>
		<path d="M424.86,366.19c-0.28-0.35-0.49-0.53-0.64-0.75c-0.79-1.16-0.79-1.85,0.08-2.32c2.69-1.45,5.3-3.15,8.15-4.17
			c2.93-1.05,5.43-2.81,8.16-4.16c0.75-0.37,1.22-1.3,1.94-2.11c-3.06-3.44-7.55-4.04-11.34-6.48c3.73,0.42,9.98,2.59,16.4,5.69
			c1.4,0.68,2.93,1.25,3.94,2.71c-0.76,1.97-2.22,3.06-4.08,3.54c-2.64,0.67-4.9,2-7.18,3.41c-1.46,0.9-3.05,1.63-4.64,2.31
			c-2.82,1.2-5.68,2.3-8.51,3.45C426.08,367.73,425.33,367.48,424.86,366.19z"/>
		<path d="M569.58,367.18c0.66,0.04,1.36-0.02,1.98,0.15c1.45,0.41,2,2.11,0.93,3.12c-0.62,0.59-1.56,1.09-2.4,1.16
			c-1.02,0.08-2.1-0.23-3.11-0.54c-3.58-1.1-6.93-2.73-10.16-4.63c-2.25-1.32-3.9-3.12-4.72-5.74c1.28-1.12,2.85-1.54,4.29-2.19
			c2.42-1.1,4.93-2.05,7.24-3.34c2.08-1.15,3.95-2.67,5.9-4.04c0.54-0.38,0.98-0.91,1.55-1.24c0.75-0.43,1.55-0.37,2.19,0.28
			c0.51,0.52,0.36,1.59-0.39,2.1c-0.88,0.59-1.8,1.13-2.77,1.57c-4.12,1.88-8.25,3.71-12.38,5.57c-0.48,0.22-1.06,0.42-1.34,0.81
			c-0.24,0.34-0.33,1.14-0.11,1.39c0.51,0.57,1.21,1.05,1.93,1.34c1.98,0.79,4,1.46,6.01,2.18c1.63,0.59,3.25,1.19,5.1,2
			C569.56,367.3,569.57,367.24,569.58,367.18z"/>
		<path d="M531.57,622.87c-0.03-5.96-0.03-11.54-0.03-16.85c0.93,2.72,1.1,3.28,0.79,6.02c-0.35,3.07-0.21,6.11,0.04,9.17
			c0.23,2.92,0.19,5.85,0.32,8.78c0.1,2.26,0.16,4.53,0.43,6.77c0.35,2.91,0.41,5.8-0.08,8.72c-0.29-4.76-0.57-9.52-0.88-14.28
			C531.99,628.55,531.79,625.89,531.57,622.87z"/>
		<path d="M530.6,583.46c-0.04-4.39-0.04-8.61-0.04-12.83c0.74,2.13,0.65,4.31,0.64,6.47c-0.01,2.11-0.06,4.23-0.11,6.34
			c0,0.11-0.1,0.24-0.2,0.31C530.87,583.79,530.73,583.68,530.6,583.46z"/>
		<path d="M534.81,660.79c0.04,1.8,0.04,3.32,0.04,5.76c-1.21-3.22-0.94-5.66-0.64-8.14C534.4,659.12,534.58,659.82,534.81,660.79z"
			/>
		<path d="M536.3,711.21c0.13-0.35,0.24-0.53,0.36-0.71c0.64,1.76,0.53,3.55,0.16,5.36C536.08,714.43,536.35,712.89,536.3,711.21z"
			/>
		<path d="M537.48,723.82c0,1.73,0,3.18,0,4.64c-0.11,0.01-0.21,0.01-0.32,0.02c-0.05-1.02-0.11-2.05-0.13-3.07
			c-0.02-1.18-0.01-2.37-0.01-3.61c0.23,0.1,0.36,0.11,0.39,0.17c0.05,0.12,0.06,0.26,0.06,0.39
			C537.48,722.76,537.48,723.15,537.48,723.82z"/>
		<path d="M700.17,582.08c-0.18-1.39-0.59-2.62-0.52-4.43c1.03,1.67,0.85,3,0.94,4.27c0.01,0.12-0.05,0.25-0.11,0.36
			C700.47,582.31,700.31,582.24,700.17,582.08z"/>
		<path d="M689.59,545.61c0.76,1.94,1.52,3.87,2.35,6.1c0.06,0.29,0.07,0.28,0.07,0.28c-1.35-1.7-2.13-3.63-2.37-6.09
			C689.6,545.6,689.59,545.61,689.59,545.61z"/>
		<path d="M540.78,764.02c0.76,1.56,1.07,3.22,1.05,4.95c-0.98-1.3-0.74-2.88-1-4.66C540.79,764.01,540.78,764.02,540.78,764.02z"/>
		<path d="M536.39,699.51c-0.07-0.74-0.1-1.38-0.14-2.01c0.12,0,0.24,0.01,0.36,0.01C536.55,698.22,536.48,698.92,536.39,699.51z"/>
		<path d="M696.83,565.18c0.09,0.41,0.12,0.76,0.14,1.1c-0.11-0.03-0.25-0.02-0.33-0.09C696.34,565.94,696.36,565.84,696.83,565.18z
			"/>
		<path d="M701.02,588.53c-0.01-0.16-0.01-0.26,0.03-0.36c0.01-0.02,0.15,0.02,0.23,0.03C701.2,588.33,701.13,588.46,701.02,588.53z
			"/>
		<path d="M533.85,652.38c-0.02,0.11-0.09,0.21-0.16,0.31C533.73,652.59,533.76,652.48,533.85,652.38z"/>
		<path d="M535.66,677.88c-0.01,0.14-0.04,0.23-0.06,0.32C535.62,678.08,535.63,677.96,535.66,677.88z"/>
		<path d="M530.83,509.38c0-0.1,0.04-0.22,0.08-0.34C530.89,509.15,530.88,509.26,530.83,509.38z"/>
		<path d="M688.81,543.98c-0.09-0.08-0.19-0.14-0.27-0.23c-0.15-0.18-0.28-0.37-0.41-0.56c0.19,0.19,0.37,0.38,0.62,0.69
			C688.8,544,688.81,543.98,688.81,543.98z"/>
		<path d="M850.4,421.61c0.05,0.11,0.11,0.21,0.15,0.32c0.08,0.22,0.14,0.45,0.21,0.67c-0.1-0.25-0.21-0.49-0.33-0.87
			C850.41,421.6,850.4,421.61,850.4,421.61z"/>
		<path d="M852.8,428.8c0.05,0.11,0.1,0.23,0.14,0.34c0.08,0.23,0.15,0.47,0.22,0.7c-0.11-0.25-0.21-0.5-0.35-0.9
			C852.8,428.8,852.8,428.8,852.8,428.8z"/>
		<path d="M540.8,764c-0.05-0.12-0.12-0.22-0.16-0.34c-0.07-0.23-0.13-0.47-0.19-0.71c0.11,0.26,0.22,0.52,0.33,0.92
			C540.78,764.02,540.79,764.01,540.8,764z"/>
		<path d="M670.34,517.93c0.03-0.02,0.12,0.17,0.12,0.17S670.32,517.95,670.34,517.93z"/>
		<path d="M538.71,746.45c-0.01-0.03,0.15-0.13,0.15-0.13S538.72,746.48,538.71,746.45z"/>
		<path d="M837.37,391.71c-0.04,0,0.01-0.25,0.01-0.25S837.41,391.71,837.37,391.71z"/>
		<path d="M683.19,533.62c0.08,0.08,0.18,0.15,0.25,0.24c0.13,0.18,0.25,0.37,0.38,0.56c-0.17-0.19-0.34-0.38-0.56-0.69
			C683.2,533.6,683.19,533.62,683.19,533.62z"/>
		<path d="M685.59,538.42c0.08,0.08,0.18,0.14,0.25,0.23c0.14,0.17,0.26,0.36,0.39,0.54c-0.18-0.18-0.35-0.36-0.58-0.67
			C685.6,538.41,685.59,538.42,685.59,538.42z"/>
		<path d="M226.4,584.8c0.02,0.05,0.04,0.1,0.03,0.07C226.41,584.79,226.4,584.8,226.4,584.8z"/>
		<path d="M295.99,743.99c0.37,0.44,0.61,0.88,0.08,1.51c-0.09,0.1-0.08,0.11-0.08-0.16c0-0.64,0.01-1.01,0.01-1.38
			C296.01,743.97,296,743.99,295.99,743.99z"/>
		<path d="M852,428.8c0.17-0.34,0.24-1.04,0.77-0.1c0.04,0.1,0.03,0.11,0.03,0.11c0,0-0.4-0.01-0.59,0
			C852.01,428.81,852,428.8,852,428.8z"/>
		<path d="M858.39,447.21c0.02,0.05,0.04,0.1,0.03,0.07C858.4,447.2,858.39,447.21,858.39,447.21z"/>
		<path d="M683.2,533.6c0.01,0-0.04-0.05-0.03-0.02C683.19,533.62,683.2,533.6,683.2,533.6z"/>
		<path d="M685.6,538.4c0.01,0-0.04-0.05-0.03-0.02C685.59,538.42,685.6,538.41,685.6,538.4z"/>
		<path d="M300.01,750.41c0.01,0.01,0.03-0.07,0.01-0.04C299.99,750.4,300,750.4,300.01,750.41z"/>
		<path d="M858.4,447.2c0,0-0.04-0.05-0.03-0.02C858.39,447.21,858.4,447.2,858.4,447.2z"/>
		<path d="M688.8,544c0.2,0.4,0.41,0.8,0.71,1.41c0.09,0.21,0.09,0.2,0.1,0.2c-0.21-0.4-0.42-0.8-0.71-1.41
			C688.81,543.98,688.8,544,688.8,544z"/>
		<path d="M839.2,396c0.01,0-0.04-0.05-0.03-0.02C839.19,396.02,839.2,396.01,839.2,396z"/>
		<path d="M850.41,421.59c0.01-0.01-0.07-0.02-0.04,0C850.4,421.61,850.41,421.6,850.41,421.59z"/>
		<path d="M692,552c0,0,0.04,0.05,0.03,0.02C692.01,551.99,692,552,692,552z"/>
		<path class="st0" d="M664.81,555.2c0.95,1.94,1.9,3.89,3.02,6.13c0.17,0.29,0.26,0.43,0.34,0.6c0.25,0.51,0.42,0.85,0.61,1.23
			c0.03,0.05,0.08,0.14,0.15,0.31c0.23,0.49,0.39,0.81,0.6,1.23c0.05,0.1,0.15,0.3,0.2,0.49c0.21,0.71,0.38,1.22,0.62,1.87
			c0.08,0.14,0.23,0.43,0.3,0.6c0.24,0.5,0.4,0.83,0.56,1.16c0-0.01-0.01-0.02,0.08,0.18c0.3,0.6,0.5,1,0.71,1.4
			c0,0.01,0.01,0.02,0.1,0.22c0.3,0.61,0.51,1,0.71,1.4c0-0.01-0.01-0.01-0.01-0.01c0.31,1.15,0.48,2.37,0.96,3.45
			c1.95,4.44,2.67,9.17,3.38,13.91c0.22,1.44,0.7,2.84,0.93,4.28c0.86,5.5,1.85,10.99,1.64,16.61c-0.12,3.16,0.03,6.34,0.04,9.5
			c0,0.39,0.02,0.83-0.14,1.17c-1.76,3.92-1.56,8-1.12,12.12c0.08,0.76-0.15,1.57-0.32,2.33c-0.48,2.06-0.99,4.12-1.53,6.17
			c-0.85,3.2-1.71,6.4-2.6,9.58c-0.36,1.28-0.94,2.5-1.22,3.79c-1.36,6.35-4.37,11.97-7.7,17.44c-1.45,2.39-2.92,4.76-4.48,7.08
			c-0.96,1.43-2.04,2.79-3.17,4.1c-3.9,4.54-7.73,9.15-11.8,13.52c-3.81,4.08-7.78,8.03-11.92,11.76c-1.84,1.65-4.21,2.78-6.47,3.87
			c-3.01,1.45-5.91,3.01-8.63,4.96c-3.15,2.26-6.66,3.91-10.39,4.98c-1.42,0.41-2.41,1.06-2.61,2.79c-0.04,0.17-0.02,0.15-0.02,0.15
			c-2.6-1.1-4.93-0.39-7.07,1.17c-0.87,0.63-1.62,1.35-2.83,1.07c-0.35-0.08-0.83,0.02-1.14,0.23c-3.02,2-6.51,1.95-10.27,2.34
			c-0.37-0.02-0.29,0-0.29,0c-0.38,0.13-0.74,0.34-1.13,0.38c-1.57,0.17-3.16,0.07-4.55,1.15c-1.12,0.87-2.82,0.39-3.96,1.6
			c-0.95,1-2.41,1.09-3.76,0.9c-0.27-0.04-0.46-0.7-0.84-1.32c-0.88,0.13-2.02,0.29-2.98,0.43c-1.29-1.02-1.23-2.27-1.27-3.45
			c-0.08-2.39-0.1-4.79-0.18-7.19c-0.23-6.25-0.38-12.5-0.78-18.74c-0.27-4.25-1.01-8.45-2.98-12.33c-0.53-1.04-0.84-2.26-0.96-3.43
			c-0.65-6.35-1.12-12.72-0.98-19.12c0.05-2.65-0.49-5.3-0.52-7.95c-0.09-6.39-0.01-12.78-0.05-19.16
			c-0.02-2.39-0.13-4.78-0.28-7.17c-0.1-1.49-0.15-2.93,1.05-4.26c0.26,0.18,0.32,0.43,0.38,0.69c0.05-0.01,0.1-0.03,0.15-0.04
			c-0.13-0.33-0.25-0.66-0.38-0.98c-1.38-2.27-1.75-4.71-1.22-7.31c0.46-2.25,0.31-4.44-0.27-6.7c-0.8-3.1-1.03-6.29-0.98-9.52
			c0.05-2.92-0.29-5.85-0.43-8.78c-0.2-4.13-0.61-8.26-0.5-12.38c0.13-4.57-0.55-9.04-0.99-13.54c-0.32-3.31-0.73-6.62-1.1-9.93
			c-0.13-1.19-0.22-2.39-0.39-3.58c-0.83-5.8-1.77-11.59-2.49-17.41c-0.59-4.76-0.91-9.55-1.36-14.33
			c-0.78-8.22-1.58-16.44-2.33-24.67c-0.26-2.92-0.28-5.86-0.57-8.77c-0.44-4.37-1.08-8.73-1.52-13.1
			c-0.25-2.51-0.35-5.05-0.37-7.58c-0.02-2.16,1.08-3.14,3.23-3.12c0.53,0.01,1.07,0.05,1.59,0.17c4.02,0.96,8.06,1.85,12.03,2.95
			c6.03,1.68,12.03,3.47,18.01,5.32c5.21,1.61,10.48,3.1,15.52,5.17c4.17,1.71,8.03,4.15,12.01,6.32c2.57,1.4,5.09,2.88,7.64,4.32
			c0.23,0.13,0.48,0.23,0.73,0.33c5.4,2.24,9.96,5.56,13.52,10.25c1.04,1.37,2.28,2.62,3.59,3.74c1.44,1.22,2.3,2.54,2.04,4.49
			c-0.05,0.36,0.19,0.77,0.57,1.52c0.54,0.64,0.79,0.91,1.05,1.17c0.43,0.48,0.77,1.22,1.3,1.4c1.9,0.64,2.91,2.14,4,3.63
			c1.39,1.9,2.89,3.74,4.24,5.67c0.81,1.16,1.44,2.46,2.1,3.99c-0.23,0.38-0.4,0.47-0.58,0.56c0.17-0.02,0.35-0.01,0.51-0.06
			c0.09-0.03,0.15-0.14,0.23-0.22c0.94,0.86,2.06,1.59,2.79,2.6c1.28,1.78,2.33,3.73,3.54,5.9c0.06,0.3,0,0.38-0.09,0.46
			c-0.02,0.52,0.05,0.96,0.37,1.38c0.44-0.03,0.61-0.05,0.79-0.06c0.43,0.95,0.82,1.92,1.3,2.85c0.6,1.19,1.16,2.38,2.88,2.34
			c0.55-0.01,1.34,0.44,1.65,0.92c1.21,1.9,2.32,3.87,3.37,5.86c0.38,0.72,0.29,1.56-0.48,2.35
			C664.77,555.15,664.81,555.2,664.81,555.2z M561.27,666.99c-0.08-0.05-0.15-0.1-0.23-0.15c-0.03,0.11-0.08,0.22-0.09,0.33
			c-0.01,0.11,0.03,0.23,0.05,0.35C561.1,667.4,561.19,667.27,561.27,666.99z M557.9,579.21l0.14,0.08
			C558.04,579.29,557.92,579.16,557.9,579.21z"/>
		<path class="st0" d="M512,440.15c-3.33,0.82-6.28,1.94-9.53,1.68c-0.73-0.06-1.5,0.5-2.27,0.68c-1.02,0.23-2.07,0.5-3.11,0.5
			c-3.06-0.01-5.97,0.5-8.97,1.29c-4.45,1.16-9.11,1.73-13.79,1.05c-0.88-0.13-1.92-0.1-2.7,0.26c-2.71,1.25-5.54,1.68-8.48,1.7
			c-2.81,0.02-7.19,1.52-9.67,3.14c-0.54,0.35-1.15,0.65-1.77,0.83c-0.78,0.22-1.72-0.3-1.89-1.08c-0.2-0.9-0.38-1.84-0.34-2.75
			c0.3-6.25,0.78-12.49,1.92-18.66c1.46-7.9,4.08-15.41,7.17-22.82c1.88-4.52,3.93-9.01,5.17-13.79c0.48-1.84,1.53-3.37,2.8-4.78
			c2.05-2.27,4.01-4.63,6.11-6.86c3.7-3.95,7.91-7.14,13.34-8.37c0.65-0.15,1.33-0.45,1.95-0.37c3.23,0.41,6.34-0.45,9.5-0.78
			c3.25-0.34,6.35,0.26,9.25,1.86c3.4,1.88,6.68,3.93,9.35,6.77c1.35,1.44,2.44,3.15,3.5,4.82c1.13,1.8,1.94,3.82,3.17,5.53
			c2.01,2.78,2.7,6.06,3.91,9.14c2.5,6.35,3.84,12.99,4.72,19.75c0.6,4.61,1.64,9.17,2.43,13.76c0.25,1.44,0.44,2.9,0.45,4.35
			c0,1.56-0.78,2.47-2.34,2.8c-1.16,0.24-2.37,0.31-3.57,0.32C522.96,440.15,517.63,440.14,512,440.15z M488.07,373.57
			c0,0-0.05,0.04-0.13,0.06C487.94,373.63,488,373.59,488.07,373.57z"/>
		<path class="st0" d="M430.26,698.63c0.01-12.83,0.03-25.34,0.02-37.85c0-2.11,0.29-4.32-1.85-5.84c0.96-1.01,1.95-1.64,2.27-2.51
			c0.4-1.07,0.28-2.35,0.31-3.55c0.05-2.53,0.01-5.06,0.07-7.59c0.03-1.16-0.11-2.41,0.84-3.36c0.99,0.1,0.94,0.9,0.94,1.49
			c-0.03,7.18,0.23,14.39-0.24,21.55c-0.42,6.52-0.48,13.02-0.49,19.54c-0.01,5.85-0.02,11.71-0.07,17.56
			c-0.01,1.14,0.11,2.36-0.77,3.34C430,700.86,430.4,699.8,430.26,698.63z"/>
		<path class="st0" d="M433.87,616.88c-0.09,4.1-0.15,7.82-0.24,11.53c-0.03,1.32-0.1,2.65-0.27,3.96
			c-0.05,0.41-0.48,0.78-0.85,1.34c-1.94-5.7-1.09-21.92,1.47-28.66c0.84,1.39,0.49,2.67,0.41,3.91
			C434.23,611.47,434.06,613.98,433.87,616.88z"/>
		<path class="st0" d="M438.77,544.47c-0.22-2.69-0.36-5.2-0.43-7.72c-0.04-1.6,0.4-3.1,1.36-4.92c0.44,0.71,0.85,1.07,0.89,1.48
			c0.12,1.18,0.21,2.39,0.1,3.56c-0.23,2.5-0.58,4.99-0.94,7.48C439.74,544.49,439.19,544.56,438.77,544.47z"/>
		<path class="st0" d="M431.19,715.5c0.13,1.94,0.3,3.65,0.32,5.35c0.01,1.56-0.09,3.13-0.66,4.53c-0.93,0.18-1.04-0.4-1.1-0.89
			c-0.41-3.44,0.15-6.81,0.59-10.14c0.22-0.08,0.35-0.17,0.44-0.14c0.1,0.04,0.21,0.17,0.24,0.27
			C431.1,714.75,431.13,715.01,431.19,715.5z"/>
		<path class="st0" d="M554.22,671.47c-0.11,1.29-0.02,2.35-1.13,3.66c-0.61-4.04-1.74-7.5-0.62-11.74c0.64,0.79,1.14,1.12,1.19,1.5
			C553.9,666.98,554.05,669.08,554.22,671.47z"/>
		<path class="st0" d="M481.26,456.56c-2.49,0.43-4.58,1.43-6.77,1.26c-0.49-0.87,0-1.2,0.48-1.35c1.39-0.43,2.79-0.87,4.23-1.11
			c2.2-0.37,4.42-0.58,6.58-0.85c0.35,0.98-0.27,1.14-0.71,1.26C483.92,456.06,482.74,456.25,481.26,456.56z"/>
		<path class="st0" d="M667.95,561.55c0.25-0.43,0.54-0.8,1-1.38c2.25,3.01,3.68,6.03,4.35,9.4c0.12,0.6-0.18,1.27-0.4,2.17
			c-0.11,0.26-0.1,0.26-0.18,0.06c-0.29-0.6-0.51-1-0.72-1.4c0,0-0.01-0.01-0.1-0.22c-0.3-0.61-0.51-1.01-0.71-1.4
			c0,0,0.01,0.02-0.06-0.15c-0.23-0.49-0.4-0.82-0.56-1.15c0,0-0.15-0.29-0.27-0.63c-0.28-0.85-0.45-1.36-0.62-1.88
			c0,0-0.1-0.2-0.22-0.46c-0.28-0.58-0.44-0.91-0.61-1.23c0,0-0.05-0.1-0.15-0.32c-0.27-0.56-0.44-0.89-0.61-1.23
			C668.09,561.75,668,561.62,667.95,561.55z"/>
		<path class="st0" d="M440.6,505.64c0-2.58-0.12-4.91,1.31-7.17c1.31,2.87,1.21,5.29-0.2,8.68
			C440.76,507.27,440.79,506.51,440.6,505.64z"/>
		<path class="st0" d="M426.06,715.3c0.06-2.52,0.11-4.76,0.18-7c0-0.08,0.19-0.15,0.29-0.22c0.89,2.74,0.95,8.24,0.04,11.26
			C425.4,718.09,426.16,716.77,426.06,715.3z"/>
		<path class="st0" d="M681.29,638.2c-0.32,0.7-0.54,1.17-0.81,1.73c-0.82-2.09-0.59-4.6,0.73-8.6c0.96-0.15,1.17,0.62,1.1,1.2
			C682.09,634.35,681.71,636.15,681.29,638.2z"/>
		<path class="st0" d="M422.98,558.88c-0.28,0.67-0.5,1.1-1.06,2.15c-0.79-3.64-0.56-6.43,0.72-9.28c0.37,0.31,0.71,0.47,0.71,0.62
			C423.27,554.46,423.15,556.55,422.98,558.88z"/>
		<path class="st0" d="M431.72,556.58c-0.27,0.84-0.48,1.43-0.83,2.35c-0.77-3.27-0.74-3.63,0.55-9.21
			C432.29,551.47,432.29,551.47,431.72,556.58z"/>
		<path class="st0" d="M518.18,335.49c1.82,2.31,1.82,2.31,2.28,4.15c-0.13,0-0.26,0.03-0.38-0.01c-0.12-0.03-0.25-0.11-0.34-0.2
			c-0.37-0.38-0.76-0.75-1.08-1.17c-1.28-1.66-2.54-3.33-4.17-5.48C516.4,333.28,517.1,334.45,518.18,335.49z"/>
		<path class="st0" d="M640.26,495.9c-1.65-1.33-3.54-2.03-4.99-3.78c3.05,0.05,4.37,1,6.84,4.89
			C641.22,496.49,640.83,496.27,640.26,495.9z"/>
		<path class="st0" d="M427.87,599.29c0.1-1.16,0.2-2.06,0.32-3.16c1.48,1.86,1.59,3.15,0.63,6.27
			C427.72,601.65,428.01,600.53,427.87,599.29z"/>
		<path class="st0" d="M674.7,693.73c0.7-1.26,1.27-2.31,1.9-3.31c0.19-0.31,0.57-0.5,0.93-0.8c-0.4,2.69-0.95,3.93-2.87,6.61
			C674.15,695.32,674.15,695.32,674.7,693.73z"/>
		<path class="st0" d="M587.81,736.95c-0.04,0.49-0.05,0.78-0.18,0.99c-0.41,0.64-1,0.89-1.68,0.48c-0.67-0.4-0.8-1.37-0.28-2.11
			c0.44-0.63,1.05-0.77,1.68-0.25C587.54,736.22,587.64,736.49,587.81,736.95z"/>
		<path class="st0" d="M669.72,705.19c0.45-0.08,1.04-0.01,1.04,0.02c-0.12,1.91-1.15,3.31-2.87,5.08c-0.01-1.04-0.16-1.55,0-1.91
			C668.39,707.33,669.02,706.34,669.72,705.19z"/>
		<path class="st0" d="M436.52,585.9c-0.21,0.4-0.36,0.6-0.52,0.81c-1.08-1.92-1.08-2.07,0.05-4.79c0.78-0.05,0.82,0.54,0.8,1.04
			C436.8,583.87,436.67,584.78,436.52,585.9z"/>
		<path class="st0" d="M428.32,614.66c0.6,1.36,0.73,2.57,0.03,3.73c-1.29-0.15-1.19-1.07-1.13-1.77
			C427.28,615.86,426.74,614.7,428.32,614.66z"/>
		<path class="st0" d="M634.28,715.88c1.02-1.53,2.19-2.84,4.3-3.21c-0.85,2.21-0.85,2.21-3.9,3.31
			C634.37,715.99,634.28,715.88,634.28,715.88z"/>
		<path class="st0" d="M429.06,460.52c-0.27,1.74-1.47,1.52-2.57,1.48c-0.51-0.63-0.21-1.14,0.27-1.3
			C427.45,460.47,428.22,460.47,429.06,460.52z"/>
		<path class="st0" d="M638.73,489.06c-0.64-0.5-1.12-0.91-1.79-1.49c2.15-0.08,2.15-0.08,3.62,2.04
			C639.84,489.41,639.37,489.28,638.73,489.06z"/>
		<path class="st0" d="M476.21,449.09c-1.16,0.15-2.12,0.25-3.43,0.38c1.49-1.46,1.49-1.46,4.42-1.15
			C476.85,448.63,476.63,448.83,476.21,449.09z"/>
		<path class="st0" d="M441.47,520.58c-0.24,0.44-0.46,0.71-0.67,0.97c-0.18-0.15-0.46-0.26-0.51-0.45
			c-0.09-0.35-0.15-0.76-0.04-1.1c0.09-0.3,0.42-0.52,0.64-0.78C441.08,519.62,441.29,520.01,441.47,520.58z"/>
		<path class="st0" d="M603.53,731.81c-0.99,0.61-1.86,1.09-2.66,1.53c-0.75-0.73-0.4-1.19,0.04-1.42c0.79-0.43,1.65-0.72,2.48-1.07
			C603.48,731.13,603.56,731.41,603.53,731.81z"/>
		<path class="st0" d="M454.2,404.67c0.43-0.04,0.99,0,1.02,0.14c0.18,0.94,0.1,1.84-1.35,2.28
			C453.95,406.23,454.02,405.51,454.2,404.67z"/>
		<path class="st0" d="M426.74,699.3c0.7,1.56,0.68,3.15,0.11,5.1C426.2,702.25,426.2,702.25,426.74,699.3z"/>
		<path class="st0" d="M427.92,516.33c-0.32,0.03-0.72-0.05-0.72-0.12c0.02-1,0.09-2,0.18-3.4
			C428.33,514.32,428.33,514.32,427.92,516.33z"/>
		<path class="st0" d="M688.13,661.19c-0.31-1.05-0.26-1.86,0.98-2.17C689.44,660.05,689.61,660.95,688.13,661.19z"/>
		<path class="st0" d="M682.33,624.86c0.03,0.44,0.12,0.76,0,0.95c-0.17,0.28-0.49,0.48-0.75,0.71c-0.16-0.2-0.45-0.41-0.44-0.6
			c0.02-0.51,0.18-1.01,0.28-1.52C681.71,624.5,682,624.59,682.33,624.86z"/>
		<path class="st0" d="M432.86,535.13c0.6,0.89,0.6,0.89,0.1,2.72C432.24,536.84,432.6,536.03,432.86,535.13z"/>
		<path class="st0" d="M491.62,446.76c-0.53,1.21-1.32,0.8-2.29,0.67C490.02,446.31,490.77,446.43,491.62,446.76z"/>
		<path class="st0" d="M577.26,762.64c0.01,0.79-0.3,1.21-0.86,0.74c-0.28-0.24-0.45-1.09-0.25-1.32
			C576.65,761.46,576.96,762.05,577.26,762.64z"/>
		<path class="st0" d="M426.86,737.07c0.3-0.17,0.59-0.21,0.88-0.25c-0.05,0.34-0.11,0.69-0.16,1.03
			C427.33,737.63,427.09,737.41,426.86,737.07z"/>
		<path class="st0" d="M677.14,648.77c0.26-0.68,0.5-1.22,0.9-2.09c0.14,1.87,0.14,1.88-0.42,2.56c-0.04,0.05-0.24,0.03-0.32-0.02
			C677.21,649.16,677.19,649.02,677.14,648.77z"/>
		<path class="st0" d="M433.75,555.72c0.27,0.33,0.45,0.67,0.47,1.01c0.01,0.13-0.37,0.28-0.57,0.42c-0.19-0.28-0.45-0.55-0.52-0.86
			C433.09,556.15,433.43,555.92,433.75,555.72z"/>
		<path class="st0" d="M645.78,499.57c0.51,0.43,0.95,0.88,0.23,1.21c-0.21,0.1-0.72-0.48-1.1-0.74
			C645.16,499.86,645.41,499.68,645.78,499.57z"/>
		<path class="st0" d="M591.88,735.61c0.78,0.47,0.97,1.03,0.55,1.66c-0.09,0.14-0.55,0.24-0.67,0.14
			C591,736.86,590.86,736.22,591.88,735.61z"/>
		<path class="st0" d="M587.4,455.17c-0.33,0.07-0.61,0.13-0.83,0.04c-0.2-0.08-0.34-0.31-0.51-0.48c0.21-0.1,0.47-0.32,0.61-0.26
			C586.98,454.6,587.22,454.87,587.4,455.17z"/>
		<path class="st0" d="M434.99,572.21c0.11-0.24,0.18-0.46,0.24-0.46c0.18,0.01,0.49,0.07,0.51,0.17c0.05,0.25,0.06,0.56-0.06,0.77
			c-0.17,0.29-0.47,0.5-0.71,0.74C434.96,573.07,434.95,572.7,434.99,572.21z"/>
		<path class="st0" d="M437.29,577.3c-0.26,0.28-0.52,0.44-0.78,0.6c-0.02-0.23-0.05-0.47-0.07-0.7
			C436.72,577.19,437,577.19,437.29,577.3z"/>
		<path class="st0" d="M549.69,444.62c0.1,0.34,0.06,0.62,0.03,0.91c-0.31-0.13-0.63-0.26-0.94-0.4
			C549.04,444.95,549.3,444.76,549.69,444.62z"/>
		<path class="st0" d="M427.75,621.93c0.27,0.2,0.42,0.45,0.58,0.71c-0.11,0.06-0.21,0.12-0.32,0.18
			C427.89,622.54,427.77,622.27,427.75,621.93z"/>
		<path class="st0" d="M545.67,516.22c-0.23-0.23-0.37-0.51-0.5-0.8c-0.01-0.01,0.19-0.11,0.29-0.17
			C545.56,515.55,545.66,515.86,545.67,516.22z"/>
		<path class="st0" d="M674.46,655.46c0.32-0.09,0.58-0.06,0.85-0.04c-0.17,0.31-0.34,0.62-0.51,0.93
			C674.67,656.09,674.54,655.83,674.46,655.46z"/>
		<path class="st0" d="M428.79,744c-1.41,0.23-1.41,0.23-1.06-1.6c0.35,0.51,0.62,0.91,0.99,1.46
			C428.81,744.01,428.79,744,428.79,744z"/>
		<path class="st0" d="M434.18,550.82c0.15,0.31,0.2,0.63,0.25,0.95c-0.19,0-0.39,0.01-0.58,0.01
			C433.92,551.47,433.99,551.15,434.18,550.82z"/>
		<path class="st0" d="M426.63,526.27c-0.01,0.22-0.09,0.4-0.17,0.57c-0.08-0.06-0.17-0.13-0.25-0.19
			C426.33,526.51,426.45,526.37,426.63,526.27z"/>
		<path class="st0" d="M462.21,451.31c-0.24-0.01-0.36-0.03-0.49-0.05c0.19-0.22,0.33-0.52,0.57-0.63c0.13-0.07,0.41,0.16,0.63,0.25
			C462.72,451.02,462.52,451.16,462.21,451.31z"/>
		<path class="st0" d="M420.67,567.69c0.2-0.24,0.37-0.37,0.55-0.49c0.04,0.32,0.08,0.64,0.11,0.95
			C421.1,568.04,420.88,567.92,420.67,567.69z"/>
		<path class="st0" d="M658.4,505.61c0.73,0.64,1.45,1.28,2.71,2.38c-1.9-0.2-2.19-1.11-2.62-2.18
			C658.4,505.6,658.4,505.61,658.4,505.61z"/>
		<path class="st0" d="M539.62,381.81c-0.22-0.51-0.31-0.98-0.44-1.66C540,380.8,540,380.8,539.62,381.81z"/>
		<path class="st0" d="M426.86,682.68c-0.2-0.31-0.35-0.65-0.38-0.99c-0.01-0.13,0.27-0.29,0.42-0.44c0.07,0.1,0.2,0.21,0.19,0.3
			C427.07,681.92,427,682.28,426.86,682.68z"/>
		<path class="st0" d="M426.55,521.92c0.12-0.29,0.24-0.47,0.37-0.66c0.11,0.19,0.32,0.39,0.29,0.55
			C427.14,522.18,426.96,522.54,426.55,521.92z"/>
		<path class="st0" d="M490.75,454.19c0.15,0.05,0.22,0.12,0.3,0.19c-0.15,0.05-0.29,0.09-0.44,0.14
			C490.63,454.41,490.65,454.31,490.75,454.19z"/>
		<path class="st0" d="M430.7,709.19c-0.08-0.28-0.11-0.52-0.09-0.75c0-0.04,0.18-0.07,0.28-0.11
			C430.85,708.63,430.81,708.93,430.7,709.19z"/>
		<path class="st0" d="M428.81,744.01c0.01-0.62,0.01-1.25,0.01-2.17c0.87,0.82,0.3,1.31,0.06,1.98
			C428.79,744,428.81,744.01,428.81,744.01z"/>
		<path class="st0" d="M436.59,549.34c-0.14-0.1-0.24-0.25-0.34-0.41c0.11-0.01,0.28-0.06,0.31-0.02
			C436.62,549.01,436.61,549.15,436.59,549.34z"/>
		<path class="st0" d="M601.13,728.18c-0.23,0.02-0.41-0.03-0.59-0.08c0.07-0.09,0.18-0.28,0.2-0.27
			C600.9,727.91,601.04,728.01,601.13,728.18z"/>
		<path class="st0" d="M428.7,592.14c0.07,0.09,0.09,0.18,0.11,0.27C428.76,592.31,428.71,592.22,428.7,592.14z"/>
		<path class="st0" d="M660.98,688.48c0.06-0.17,0.11-0.3,0.2-0.35c0.05-0.03,0.18,0.1,0.27,0.16
			C661.3,688.37,661.14,688.46,660.98,688.48z"/>
		<path class="st0" d="M499.57,319.85c0.1-0.08,0.2-0.1,0.3-0.13C499.76,319.79,499.66,319.85,499.57,319.85z"/>
		<path class="st0" d="M490.32,320.38c0.11,0.16,0.14,0.34,0.17,0.51c-0.11,0.01-0.22,0.02-0.33,0.03
			C490.18,320.74,490.21,320.56,490.32,320.38z"/>
		<path class="st0" d="M492.72,359.65c0.12-0.08,0.21-0.1,0.31-0.12c-0.05,0.13-0.1,0.27-0.15,0.4
			C492.82,359.86,492.76,359.79,492.72,359.65z"/>
		<path class="st0" d="M445.52,441.48c0.16,0.1,0.25,0.25,0.35,0.39c-0.09,0.06-0.19,0.11-0.28,0.17
			C445.54,441.87,445.5,441.7,445.52,441.48z"/>
		<path class="st0" d="M435.96,508.41c-0.1,0.23-0.24,0.37-0.37,0.52c-0.05-0.11-0.16-0.29-0.13-0.31
			C435.59,508.5,435.76,508.42,435.96,508.41z"/>
		<path class="st0" d="M426.86,667.91c0.04,0.12,0.03,0.22,0.02,0.31C426.86,668.11,426.84,668,426.86,667.91z"/>
		<path class="st0" d="M417.31,670.69c-0.03-0.03,0.17-0.21,0.17-0.21S417.34,670.72,417.31,670.69z"/>
		<path class="st0" d="M625.25,477.43c0.05,0.11,0.04,0.2,0.04,0.29C625.26,477.62,625.23,477.51,625.25,477.43z"/>
		<path class="st0" d="M426.86,676.71c0.04,0.14,0.04,0.24,0.03,0.35C426.86,676.94,426.84,676.81,426.86,676.71z"/>
		<path class="st0" d="M419.08,590.66c-0.11-0.02-0.18-0.07-0.25-0.12C418.93,590.58,419.02,590.6,419.08,590.66z"/>
		<path class="st0" d="M559.8,447.13c-0.16-0.05-0.24-0.12-0.33-0.18c0.16-0.05,0.31-0.1,0.47-0.15
			C559.92,446.91,559.89,447.01,559.8,447.13z"/>
		<path class="st0" d="M419.74,581.11c0.04-0.02,0.14,0.22,0.14,0.22S419.71,581.13,419.74,581.11z"/>
		<path class="st0" d="M441.29,515.22c-0.02,0.03-0.16-0.12-0.16-0.12S441.3,515.19,441.29,515.22z"/>
		<path class="st0" d="M637.1,515.33c-0.35-0.16-0.61-0.42-1.06-0.89C636.52,514.27,637.56,513.77,637.1,515.33z"/>
		<path class="st0" d="M434.14,528.01c-0.12,0.01-0.2-0.02-0.29-0.05C433.96,527.96,434.06,527.96,434.14,528.01z"/>
		<path class="st0" d="M440.46,528.14c-0.14-0.15-0.2-0.33-0.25-0.51c0.1-0.02,0.19-0.05,0.29-0.07
			C440.51,527.75,440.52,527.94,440.46,528.14z"/>
		<path class="st0" d="M632.8,716.8c-0.13,0.16-0.26,0.32-0.39,0.47c0.07-0.13,0.14-0.26,0.3-0.43
			C632.8,716.8,632.8,716.8,632.8,716.8z"/>
		<path class="st0" d="M426.85,687.94c0.04,0.02-0.1,0.26-0.1,0.26S426.81,687.92,426.85,687.94z"/>
		<path class="st0" d="M669.2,702.19c-0.05-0.15-0.03-0.26-0.02-0.36c0.12,0.1,0.25,0.19,0.37,0.29
			C669.46,702.16,669.36,702.2,669.2,702.19z"/>
		<path class="st0" d="M426.67,692.02c0.03-0.13,0.08-0.21,0.13-0.29C426.77,691.84,426.73,691.96,426.67,692.02z"/>
		<path class="st0" d="M594.28,766.78c-0.15,0-0.23-0.06-0.32-0.12C594.09,766.68,594.21,766.7,594.28,766.78z"/>
		<path class="st0" d="M682.88,617.19c-0.01,0.04-0.16-0.07-0.16-0.07S682.9,617.16,682.88,617.19z"/>
		<path class="st0" d="M634.42,716.04c-0.36,0.25-0.77,0.44-1.4,0.7c-0.22,0.06-0.22,0.06-0.22,0.06c0.36-0.24,0.73-0.49,1.29-0.82
			C634.28,715.88,634.37,715.99,634.42,716.04z"/>
		<path class="st0" d="M656.09,540.5c-0.05,0.2-0.22,0.22-0.66,0.01c-0.27-0.56-0.28-0.89-0.29-1.22c0,0,0.07-0.08,0.1-0.12
			C655.5,539.53,655.73,539.92,656.09,540.5z"/>
		<path class="st0" d="M658.41,505.59c0.01-0.01-0.21-0.07-0.21-0.07s0.13,0.02,0.16,0.06C658.4,505.61,658.4,505.6,658.41,505.59z"
			/>
		<path class="st0" d="M605.59,725.6c-0.01,0,0.04,0.06,0.03,0.02C605.61,725.58,605.6,725.6,605.59,725.6z"/>
		<path class="st0" d="M495.99,446.39c0,0-0.06,0.04-0.03,0.02C496,446.4,495.99,446.39,495.99,446.39z"/>
		<path class="st0" d="M496,446.4c0,0,0.06-0.03,0.02-0.02C495.99,446.39,496,446.4,496,446.4z"/>
		<path class="st0" d="M276.03,344.08c-3.19,4.44-6.21,8.66-9.25,12.87c-0.47,0.65-0.91,1.33-1.46,1.9
			c-4.36,4.62-7.31,10.11-10.08,15.76c-1.58,3.22-3.59,6.23-5.22,9.43c-3.68,7.25-7.28,14.54-10.82,21.85
			c-1.91,3.95-4.03,7.83-4.79,12.24c-0.11,0.65-0.42,1.26-0.67,1.88c-3.83,9.67-7.04,19.57-9.98,29.54
			c-2.3,7.79-3.96,15.77-5.89,23.66c-0.57,2.33-1.15,4.66-1.59,7.02c-0.7,3.8-1.42,7.6-1.9,11.42c-0.84,6.74-1.5,13.51-2.27,20.26
			c-0.14,1.25,0.01,2.67-1.26,3.54c-1.35-0.68-1.25-1.84-1.17-2.85c0.26-3.45,0.53-6.91,0.97-10.35c0.53-4.09,1.27-8.16,1.87-12.25
			c0.65-4.35,1.1-8.73,1.9-13.05c1-5.37,2.09-10.73,3.48-16.01c2.27-8.63,4.69-17.23,7.29-25.77c2.37-7.78,5.02-15.47,8.7-22.75
			c0.48-0.94,0.67-2.02,1.08-3c0.61-1.47,1.28-2.92,1.96-4.36c1.03-2.16,2.32-4.23,3.12-6.47c1.92-5.45,4.84-10.38,7.56-15.42
			c2.73-5.04,5.63-9.98,8.45-14.97c0.13-0.23,0.2-0.51,0.37-0.71c3.58-4.2,5.37-9.49,8.48-13.98c3.11-4.49,6.21-8.99,9.49-13.36
			c2.47-3.3,5.22-6.4,7.84-9.59c2.2-2.67,4.37-5.37,6.61-8.02c6.54-7.74,13.46-15.14,20.71-22.19c8.8-8.54,17.97-16.68,28.12-23.64
			c1.53-1.05,2.86-2.4,4.38-3.48c5.41-3.87,10.67-7.96,16.4-11.37c1.6-0.95,3.05-2.13,4.57-3.21c2.83-2,5.64-4,8.8-5.51
			c2.16-1.03,4.13-2.44,6.21-3.62c5.8-3.29,11.66-6.46,17.85-8.97c0.99-0.4,1.97-0.84,2.88-1.38c5.29-3.14,10.91-5.62,16.63-7.79
			c4.72-1.79,9.63-3.09,14.45-4.63c1.64-0.53,3.25-1.16,4.89-1.73c1.26-0.44,2.51-0.88,3.78-1.26c2.3-0.7,4.67-1.19,6.89-2.07
			c2.64-1.04,5.32-1.78,8.12-1.97c3.77-0.26,7.14-2.03,10.79-2.75c2.08-0.41,4.13-0.82,6.48-0.44c-0.49,1.6-1.54,2.2-2.74,2.09
			c-2.09-0.2-3.8,0.41-5.67,1.3c-1.98,0.94-4.35,1.06-6.53,1.57c-1.29,0.3-2.66,0.47-3.82,1.05c-3.13,1.57-6.43,2.52-9.78,3.44
			c-3.21,0.88-6.33,2.06-9.53,2.98c-2.16,0.62-4.38,1.13-6.6,1.48c-1.11,0.17-2.06,0.46-2.86,1.23c-1.77,1.71-3.96,2.67-6.18,3.61
			c-5.89,2.49-11.75,5.03-17.64,7.53c-2.45,1.04-4.92,2.04-7.39,3.02c-5.12,2.02-9.4,5.52-14.26,8.01
			c-4.14,2.12-8.25,4.35-12.14,6.89c-3.55,2.32-7.3,4.33-10.6,7.1c-2.73,2.28-5.98,3.95-9.07,5.76c-1.73,1.01-3.37,2.05-4.84,3.47
			c-1.9,1.85-4.1,3.39-6.14,5.1c-1.43,1.2-2.8,2.45-4.19,3.69c-4.27,3.82-8.57,7.61-12.78,11.49c-4.41,4.06-8.74,8.2-13.09,12.32
			c-0.97,0.92-1.92,1.85-2.83,2.82c-1.63,1.75-3.23,3.52-4.84,5.3c-1.7,1.87-3.42,3.73-5.06,5.65c-3.02,3.55-6.07,7.08-8.96,10.74
			C280.81,337.32,278.55,340.63,276.03,344.08z"/>
		<path class="st0" d="M808.8,708c-0.03-2.5,0.92-4.78,2.18-6.76c2.22-3.52,3.52-7.45,5.45-11.1c3.04-5.76,5.94-11.6,8.85-17.43
			c0.77-1.54,1.38-3.16,2.01-4.77c3.39-8.54,6.77-17.08,10.15-25.63c0.34-0.87,0.86-1.71,0.99-2.61c0.92-6.1,3.77-11.64,5.01-17.65
			c0.46-2.22,0.88-4.44,1.4-6.65c1.33-5.7,2.7-11.4,4.06-17.1c0.15-0.65,0.33-1.29,0.42-1.95c0.82-5.53,1.72-11.05,2.41-16.6
			c0.39-3.17,0.36-6.38,0.67-9.56c0.3-3.05,0.7-6.09,1.26-9.1c0.92-5.01,1-10.04,0.84-15.12c-0.16-5.06-0.06-10.12-0.07-15.18
			c0-1.6,0.14-3.2,0.03-4.79c-0.86-12.76-2.02-25.49-3.55-38.18c-0.24-1.98-0.58-3.95-0.81-5.94c-0.05-0.46,0.14-0.95,0.4-2.5
			c0.56,1.12,0.82,1.44,0.89,1.8c0.26,1.3,0.48,2.62,0.69,3.93c0.37,2.23,0.76,4.46,1.07,6.71c0.77,5.54,1.54,11.07,2.25,16.62
			c0.73,5.69,0.96,11.41,0.68,17.15c-0.06,1.32,0.06,2.67,0.26,3.98c0.9,6.1,0.86,12.17,0.07,18.31c-0.5,3.94-0.38,7.98-0.19,11.97
			c0.26,5.49-0.02,10.92-1.13,16.29c-0.59,2.87-1.16,5.7-1.22,8.68c-0.05,2.63-0.77,5.26-1.24,7.88
			c-1.28,7.07-2.57,14.15-3.89,21.21c-0.27,1.44-0.63,2.86-1.04,4.26c-1.25,4.35-2.38,8.75-3.87,13.02
			c-1.71,4.9-1.98,10.22-4.46,14.88c-1.32,6.3-4,12.13-6.21,18.12c-0.87,2.36-2.06,4.61-3.12,6.91c-0.33,0.72-0.79,1.41-1.02,2.16
			c-1.28,4.25-3.53,8.03-5.62,11.89c-1.65,3.04-2.99,6.26-4.76,9.22c-2.31,3.89-4.88,7.62-7.41,11.38
			c-0.51,0.75-1.33,1.29-2.22,2.09C808.8,708,808.8,708,808.8,708z"/>
		<path class="st0" d="M208.76,549.28c-0.02-6.87-0.06-13.38-0.05-19.9c0-1.73,0.05-3.46,0.23-5.18c0.09-0.86,0.51-1.69,0.76-2.48
			c1.35,0.09,1.47,0.99,1.48,1.72c0.02,2.79,0.07,5.59-0.13,8.37c-0.39,5.18-0.68,10.34-0.16,15.53c0.18,1.84-0.01,3.72-0.11,5.57
			c-0.02,0.44-0.4,0.85-0.76,1.59C208.79,552.79,208.85,551.2,208.76,549.28z"/>
		<path class="st0" d="M223.43,616c2.94,13.67,6.74,26.77,11.53,39.51c-0.91,0.6-1.2,0.05-1.38-0.41
			c-1.33-3.47-2.77-6.91-3.89-10.45c-2.96-9.37-5.74-18.8-7.91-28.39c-0.31-1.37-0.95-2.75-0.32-4.55
			C222.97,612.87,222.88,614.42,223.43,616z"/>
		<path class="st0" d="M481.24,212.89c2.85-0.91,5.41-0.47,7.84-0.09c0.49,0.8,0.24,1.28-0.28,1.51c-1.33,0.57-2.65,1.22-4.05,1.52
			c-2.57,0.54-5.19,0.87-7.8,1.24c-0.49,0.07-1.13,0.02-1.51-0.25c-0.31-0.22-0.57-1.05-0.41-1.26c0.47-0.59,1.09-1.17,1.78-1.43
			C478.16,213.61,479.59,213.31,481.24,212.89z"/>
		<path class="st0" d="M854.08,472.8c1.28,6.29,2.89,12.32,3.43,18.5c-0.94,0.46-1.08-0.21-1.18-0.64c-0.41-1.68-0.76-3.37-1.1-5.06
			c-0.71-3.51-1.42-7.03-2.07-10.55c-0.14-0.77-0.08-1.57-0.06-2.36C853.1,472.66,853.67,472.64,854.08,472.8z"/>
		<path class="st0" d="M214.61,542.28c0.17,2.49,0.36,4.6,0.48,6.72c0.1,1.7,0.29,3.42-0.38,4.99c-0.99,0.16-1.03-0.49-1.05-0.96
			c-0.11-2.52-0.23-5.03-0.22-7.55c0-3.71,0.1-7.43,0.18-11.14c0.01-0.6,0.16-1.2,0.5-1.8c0.69,1.5,0.35,3.07,0.43,4.6
			C214.61,538.72,214.58,540.32,214.61,542.28z"/>
		<path class="st0" d="M214.88,561.49c1.13,4.97,1.41,9.12,1.1,14.26c-0.2-0.08-0.54-0.13-0.56-0.24c-1-4.4-1.17-8.88-1.32-13.36
			C214.09,561.9,214.52,561.64,214.88,561.49z"/>
		<path class="st0" d="M210,562.17c-0.19-1.17-0.5-2.07,0.09-2.93c0.35,0.17,0.74,0.24,0.76,0.38c0.53,3.64,0.93,7.3,1.04,11.89
			c-1.46-2.19-1.88-3.75-1.85-5.47C210.06,564.84,210.05,563.65,210,562.17z"/>
		<path class="st0" d="M221.75,467.76c0.46-2.06,0.79-3.87,1.28-5.64c0.22-0.82,0.73-1.57,1.16-2.46c0.32,0.41,0.61,0.64,0.58,0.77
			c-0.99,3.34-0.9,6.97-2.63,10.35C221.1,469.76,221.68,468.86,221.75,467.76z"/>
		<path class="st0" d="M774.54,752.19c0.99-1.03,1.8-1.87,2.65-2.65c0.12-0.11,0.53-0.01,0.71,0.12c0.18,0.13,0.34,0.45,0.3,0.65
			c-0.07,0.37-0.19,0.82-0.45,1.07c-1.77,1.72-3.57,3.4-5.38,5.08c-0.03,0.03-0.21-0.09-0.53-0.23
			C772.41,754.76,773.58,753.69,774.54,752.19z"/>
		<path class="st0" d="M215.92,513.66c-0.17,0.97-0.32,1.7-0.52,2.69c-1.24-2.34-1.24-2.83-0.19-5.89
			C215.94,511.63,215.94,511.63,215.92,513.66z"/>
		<path class="st0" d="M220.81,478.05c-0.4,0.15-1,0.18-1,0.15c-0.15-1.47,0.2-2.8,1.32-4.4
			C221.95,475.56,221.08,476.71,220.81,478.05z"/>
		<path class="st0" d="M844.32,413.33c-0.39-0.81-0.47-1.46,0.36-1.71c0.26-0.08,0.76,0.18,0.96,0.44c0.41,0.52,0.65,1.21,0.09,1.75
			C845.25,414.26,844.79,413.87,844.32,413.33z"/>
		<path class="st0" d="M808.8,708c-0.66,1.48-1.32,2.95-2.12,4.65c-0.15,0.22-0.33,0.13-0.43,0.08c-1.03-2.36,0.52-3.44,2.34-4.61
			C808.8,708,808.8,708,808.8,708z"/>
		<path class="st0" d="M215.09,521.61c0.09,1,0.44,1.94-0.6,2.56c-1.01-0.72-0.51-1.6-0.25-2.4
			C214.3,521.6,214.76,521.56,215.09,521.61z"/>
		<path class="st0" d="M216.5,505.79c-0.37,0.13-0.66,0.1-0.96,0.08c0.19-0.99,0.37-1.97,0.56-2.96c0.16,0.02,0.31,0.04,0.47,0.06
			C216.57,503.86,216.57,504.75,216.5,505.79z"/>
		<path class="st0" d="M216.51,497.74c0.14-1.04,0.1-1.97,0.83-2.99c0.42,1.5,0.52,2.62-0.33,3.62c-0.03,0.04-0.25-0.03-0.33-0.11
			C216.6,498.18,216.57,498.03,216.51,497.74z"/>
		<path class="st0" d="M212.47,576.86c-0.08,0.38-0.16,0.62-0.24,0.86c-0.21-0.08-0.54-0.12-0.6-0.26c-0.14-0.34-0.22-0.74-0.2-1.1
			c0.01-0.17,0.31-0.33,0.48-0.5C212.09,576.14,212.28,576.43,212.47,576.86z"/>
		<path class="st0" d="M225.3,456.36c-0.69-0.84-0.33-1.4,0.44-1.88C226.51,455.26,226.01,455.81,225.3,456.36z"/>
		<path class="st0" d="M216.72,583.34c-0.25-0.24-0.47-0.52-0.54-0.83c-0.03-0.14,0.22-0.35,0.34-0.53c0.13,0.2,0.32,0.38,0.36,0.59
			C216.93,582.8,216.84,583.05,216.72,583.34z"/>
		<path class="st0" d="M220.13,605.22c-0.19-0.12-0.31-0.29-0.43-0.45c0.1-0.06,0.19-0.11,0.29-0.17
			C220.06,604.79,220.13,604.98,220.13,605.22z"/>
		<path class="st0" d="M768.99,759.21c0.21,0.13,0.33,0.29,0.45,0.45c-0.19,0.06-0.39,0.12-0.58,0.19
			C768.87,759.65,768.88,759.44,768.99,759.21z"/>
		<path class="st0" d="M533.03,209.28c-0.24-0.09-0.38-0.21-0.53-0.34c0.17-0.08,0.34-0.16,0.51-0.24
			C533.05,208.89,533.08,209.07,533.03,209.28z"/>
		<path class="st0" d="M235.26,425.95c-0.07-0.18-0.07-0.36-0.07-0.54c0.1,0,0.2,0,0.3,0C235.44,425.59,235.39,425.77,235.26,425.95
			z"/>
		<path class="st0" d="M599.62,227.62c-0.11,0.11-0.26,0.17-0.42,0.23c0.01-0.1,0-0.25,0.05-0.28
			C599.34,227.53,599.47,227.56,599.62,227.62z"/>
		<path class="st0" d="M843.41,408.38c-0.13-0.03-0.21-0.1-0.29-0.17C843.24,408.25,843.35,408.3,843.41,408.38z"/>
		<path class="st0" d="M492.06,213.04c0.2,0.05,0.35,0.16,0.5,0.26c-0.07,0.07-0.15,0.14-0.22,0.21
			C492.23,213.37,492.12,213.23,492.06,213.04z"/>
		<path class="st0" d="M841.6,400.8c-0.57,1.21-0.57,1.21-1.53,0.15c-0.07-0.15-0.08-0.14-0.08-0.14c0.36,0,0.71-0.01,1.33-0.01
			C841.6,400.8,841.6,400.8,841.6,400.8z"/>
		<path class="st0" d="M219.09,484.63c-0.11,0.08-0.2,0.1-0.29,0.12c0.06-0.15,0.13-0.29,0.19-0.44
			C219.04,484.4,219.08,484.49,219.09,484.63z"/>
		<path class="st0" d="M510.57,211.11c-0.07,0.15-0.14,0.27-0.24,0.3c-0.06,0.02-0.17-0.1-0.26-0.16
			C510.24,211.19,510.4,211.11,510.57,211.11z"/>
		<path class="st0" d="M515.87,210.3c-0.11-0.08-0.16-0.16-0.21-0.24c0.14,0,0.28,0.01,0.42,0.01
			C516.03,210.14,515.98,210.22,515.87,210.3z"/>
		<path class="st0" d="M233.15,432.59c-0.09,0.05-0.17,0.05-0.25,0.05C232.99,432.61,233.07,432.58,233.15,432.59z"/>
		<path class="st0" d="M218.7,597.15c-0.11-0.04-0.18-0.1-0.24-0.17C218.56,597.03,218.65,597.07,218.7,597.15z"/>
		<path class="st0" d="M214.39,595.28c-0.02-0.03,0.13-0.11,0.13-0.11S214.41,595.31,214.39,595.28z"/>
		<path class="st0" d="M855.93,442.49c-0.26-0.14-0.47-0.36-0.67-0.57c0.22,0.07,0.45,0.14,0.75,0.29
			C856.09,442.29,855.99,442.42,855.93,442.49z"/>
		<path class="st0" d="M227.43,448.48c0.04,0-0.02,0.26-0.02,0.26S227.39,448.48,227.43,448.48z"/>
		<path class="st0" d="M214.28,528.9c-0.03-0.03,0.17-0.15,0.17-0.15S214.31,528.94,214.28,528.9z"/>
		<path class="st0" d="M228.32,445.17c0.01-0.03,0.15,0.06,0.15,0.06S228.31,445.21,228.32,445.17z"/>
		<path class="st0" d="M230.41,439.2c0.02-0.06,0.05-0.12,0.03-0.1C230.4,439.19,230.41,439.2,230.41,439.2z"/>
		<path class="st0" d="M859.04,507.12c-0.03,0,0.01-0.15,0.01-0.15S859.07,507.12,859.04,507.12z"/>
		<path class="st0" d="M860.93,539.93c-0.03,0,0.01-0.16,0.01-0.16S860.96,539.93,860.93,539.93z"/>
		<path class="st0" d="M820.8,361.6c0-0.01-0.06,0.03-0.02,0.03C820.82,361.61,820.8,361.6,820.8,361.6z"/>
		<path class="st0" d="M295.98,744.13c0.03,0.2,0.03,0.57,0.03,1.22C295.99,745.19,295.96,744.74,295.98,744.13z"/>
		<path class="st0" d="M224.8,503.2c0-0.01-0.05,0.04-0.02,0.03S224.8,503.2,224.8,503.2z"/>
		<path class="st0" d="M230.39,439.19c-0.01-0.01-0.02,0.08,0,0.05C230.41,439.2,230.4,439.19,230.39,439.19z"/>
		<path class="st0" d="M840,400.8c0,0-0.13-0.18-0.13-0.18s0.1,0.1,0.11,0.14C839.99,400.81,840,400.8,840,400.8z"/>
		<path class="st0" d="M461.62,306.86c0.02-0.31,0.07-0.53,0.13-0.75c0.16,0.12,0.44,0.24,0.45,0.37
			C462.22,306.79,462.27,307.3,461.62,306.86z"/>
		<path class="st0" d="M461.53,314.15c-0.04-0.15-0.02-0.26-0.01-0.36c0.12,0.1,0.25,0.2,0.37,0.31
			C461.79,314.13,461.69,314.17,461.53,314.15z"/>
		<path class="st0" d="M471.55,301.94c-0.15,0-0.29-0.06-0.42-0.13C471.28,301.83,471.42,301.85,471.55,301.94z"/>
		<path class="st0" d="M467.39,297.23c-0.12,0.06-0.23,0.06-0.34,0.06C467.17,297.25,467.29,297.22,467.39,297.23z"/>
		<path class="st0" d="M569.59,367.19c-0.02,0.05-0.03,0.11-0.01,0.09C569.6,367.2,569.59,367.19,569.59,367.19z"/>
		<path d="M561.28,667.07c-0.09,0.2-0.18,0.33-0.27,0.46c-0.02-0.12-0.06-0.23-0.05-0.35c0.01-0.11,0.06-0.22,0.09-0.33
			C561.12,666.89,561.2,666.94,561.28,667.07z"/>
		<path d="M560,630.4c0.12,0.33,0.25,0.66,0.37,0.99c-0.05,0.01-0.1,0.03-0.15,0.04c-0.06-0.26-0.12-0.51-0.19-0.91
			C560.02,630.38,560,630.39,560,630.4z"/>
		<path d="M557.91,579.18c0.01-0.03,0.13,0.11,0.13,0.11S557.9,579.21,557.91,579.18z"/>
		<path d="M648.8,530.4c-0.07,0.08-0.14,0.2-0.22,0.23c-0.16,0.05-0.34,0.04-0.51,0.06c0.18-0.09,0.35-0.18,0.63-0.28
			C648.79,530.39,648.8,530.4,648.8,530.4z"/>
		<path d="M669.73,565.18c0.13,0.31,0.29,0.83,0.5,1.53C670.1,566.4,669.94,565.89,669.73,565.18z"/>
		<path d="M655.05,539.38c0.09,0.24,0.1,0.57,0.11,1.15C655.1,540.34,655.04,539.9,655.05,539.38z"/>
		<path d="M584.01,730.39c0.01-0.01-0.07-0.02-0.04,0C584,730.41,584.01,730.4,584.01,730.39z"/>
		<path d="M668.16,561.92c0.1,0.16,0.27,0.5,0.51,1.01C668.58,562.77,668.41,562.43,668.16,561.92z"/>
		<path d="M668.93,563.46c0.09,0.16,0.25,0.48,0.48,0.96C669.32,564.27,669.16,563.95,668.93,563.46z"/>
		<path d="M670.64,567.65c0.09,0.16,0.25,0.49,0.49,0.99C671.04,568.48,670.88,568.15,670.64,567.65z"/>
		<path d="M671.28,568.99c0.11,0.19,0.32,0.59,0.62,1.19C671.79,569.99,671.58,569.59,671.28,568.99z"/>
		<path d="M672.09,570.62c0.12,0.19,0.33,0.59,0.63,1.19C672.6,571.62,672.39,571.22,672.09,570.62z"/>
		<path d="M664.8,555.2c0.01,0-0.04-0.06-0.03-0.02C664.79,555.22,664.8,555.2,664.8,555.2z"/>
		<path d="M488.01,373.61c0,0,0.05-0.04,0.02-0.03C488,373.6,488.01,373.61,488.01,373.61z"/>
		<path d="M488,373.6c0-0.01-0.06,0.03-0.02,0.02C488.01,373.61,488,373.6,488,373.6z"/>
	</g>
</g>
</svg>
